<ttFont>
          <CharString index="0">
            67 602 67 rmoveto
            -107 callgsubr
            -14 28 82 19 57 18 56 vhcurveto
            return
          </CharString>
          <CharString index="1">
            737 82 rmoveto
            -48 callsubr
            -19 189 -11 190 -13 190 rrcurveto
            -143 -33 -2 -85 -118 hvcurveto
            -105 callsubr
            return
          </CharString>
          <CharString index="2">
            -101 callgsubr
            rrcurveto
            -30 4 5 -25 36 hhcurveto
            49 90 64 27 41 hvcurveto
            -248 245 -87 callgsubr
            return
          </CharString>
          <CharString index="3">
            rmoveto
            -104 callgsubr
          </CharString>
          <CharString index="4">
            rmoveto
            -4 -12 -13 -3 -14 hhcurveto
            -27 -17 11 29 12 3 12 2 11 hvcurveto
            56 241 rlineto
            -28 callsubr
            7 vvcurveto
            50 -43 -26 callsubr
            4 15 4 16 16 vvcurveto
            27 -16 -27 callgsubr
            -14 -28 -38 -38 -13 -43 callsubr
            -9 -2 -10 -2 -9 hvcurveto
            -24 -105 -26 -104 -24 -105 rrcurveto
            -39 callgsubr
            31 -31 callgsubr
            -8 13 17 6 0 6 2 5 hvcurveto
            35 151 rlineto
            59 14 23 93 77 hhcurveto
            53 30 -26 -53 -15 -3 -16 -3 -15 hvcurveto
            -43 18 callgsubr
            -21 -6 50 callgsubr
            -29 15 -13 29 53 55 43 30 41 vhcurveto
            return
          </CharString>
          <CharString index="5">
            rmoveto
            -23 -18 -26 -14 -26 -14 -11 -5 -11 -5 -10 -7 -49 -39 rcurveline
            -21 31 -21 31 -22 30 rrcurveto
            1 -9 11 -1 -11 -82 -56 -11 -15 vhcurveto
            24 -35 24 -36 26 -35 rrcurveto
            1 7 -10 1 hhcurveto
            9 85 55 10 12 hvcurveto
            return
          </CharString>
          <CharString index="6">
            31 559 456 rmoveto
            -80 callsubr
            -30 21 -6 27 51 49 42 28 40 vhcurveto
            -60 callsubr
            -101 -29 -73 callgsubr
            return
          </CharString>
          <CharString index="7">
            177 -106 callsubr
            return
          </CharString>
          <CharString index="8">
            53 587 66 -103 callsubr
            return
          </CharString>
          <CharString index="9">
            230 459 -21 rmoveto
            22 13 75 39 13 14 14 14 13 16 12 15 rrcurveto
            63 74 146 166 97 vvcurveto
            23 -9 25 -28 -37 -37 -55 -17 -37 vhcurveto
            4 8 9 3 7 hhcurveto
            27 4 -28 -21 -81 -109 -133 -49 -62 hvcurveto
            -1 97 -10 119 -16 96 rrcurveto
            12 -2 -15 68 -13 hhcurveto
            -10 -63 -42 -10 -16 hvcurveto
            10 -13 8 -35 -16 vvcurveto
            -91 -108 -133 -38 -58 vhcurveto
            6 76 -11 269 -41 39 rrcurveto
            7 -6 -11 3 -10 hhcurveto
            -44 -50 -43 -29 -34 hvcurveto
            5 9 13 5 11 hhcurveto
            81 -3 -276 -54 hvcurveto
            -34 -1 -34 -34 vvcurveto
            18 10 83 46 10 10 15 17 11 20 14 18 33 46 32 45 31 47 9 -86 1 -87 1 -86 rrcurveto
            return
          </CharString>
          <CharString index="10">
            -58 callgsubr
            151 -120 91 -144 -57 callgsubr
            hvcurveto
            -55 callsubr
            -72 callsubr
            vhcurveto
            return
          </CharString>
          <CharString index="11">
            rmoveto
            -22 -22 -74 -19 -14 -25 rrcurveto
            -22 -13 -20 -32 -30 hhcurveto
            -63 -34 66 54 -10 hvcurveto
            -12 -14 -98 -36 -16 vvcurveto
            -8 4 -10 2 -8 vhcurveto
            -54 18 39 -39 60 hhcurveto
            86 160 99 86 21 hvcurveto
            endchar
          </CharString>
          <CharString index="12">
            35 callsubr
            -74 callsubr
            81 97 42 55 59 vhcurveto
            -47 callsubr
            169 172 -69 callsubr
            return
          </CharString>
          <CharString index="13">
            -43 -53 -29 -1 -6 rcurveline
            93 42 125 107 69 74 rrcurveto
            return
          </CharString>
          <CharString index="14">
            -61 callgsubr
            -272 hlineto
            30 13 21 65 7 30 37 159 rcurveline
            142 hlineto
            25 66 63 3 20 hvcurveto
            -238 hlineto
            56 35 callgsubr
            217 hlineto
            24 67 63 -10 callgsubr
            return
          </CharString>
          <CharString index="15">
            -152 297 703 rmoveto
            -71 callgsubr
            166 -81 callgsubr
            return
          </CharString>
          <CharString index="16">
            22 226 -8 rmoveto
            152 198 182 156 86 -55 68 -90 -47 callgsubr
            hvcurveto
            237 265 -71 callsubr
            return
          </CharString>
          <CharString index="17">
            192 761 81 rmoveto
            -8 -13 -21 -8 -15 hhcurveto
            -31 -16 30 22 -15 hvcurveto
            -95 141 -22 33 -17 30 -39 17 rlinecurve
            99 43 141 87 123 vvcurveto
            99 -121 13 -75 vhcurveto
            -236 -28 callgsubr
            105 41 callgsubr
            -11 -49 -17 -35 -38 -33 rlinecurve
            161 39 callgsubr
            62 4 -1 callgsubr
            23 99 rcurveline
            96 1 14 -37 49 -73 97 -144 rcurveline
            -17 12 10 -20 24 hhcurveto
            59 67 39 44 39 39 callsubr
            439 rmoveto
            -12 -1 -11 -2 -12 vhcurveto
            -111 -27 -89 -18 -100 hhcurveto
            -76 hlineto
            65 280 rlineto
            61 hlineto
            73 96 -25 -91 hvcurveto
            return
          </CharString>
          <CharString index="18">
            -79 591 475 rmoveto
            -8 -14 -27 -12 -15 -26 -24 31 -35 hhcurveto
            -50 -67 -52 -27 -42 hvcurveto
            2 11 2 11 10 vvcurveto
            28 -15 11 -27 -17 -18 -4 -6 -16 vhcurveto
            -39 -13 -31 -40 -36 -12 -43 callsubr
            -21 -8 -20 -4 -20 hvcurveto
            -66 -281 rlineto
            -3 -1 -3 -3 vvcurveto
            -21 18 -13 20 60 21 41 30 42 -31 callgsubr
            -9 20 callsubr
            2 5 hvcurveto
            43 187 rlineto
            31 7 28 98 43 34 23 -31 30 hhcurveto
            59 66 42 45 38 hvcurveto
            return
          </CharString>
          <CharString index="19">
            -59 callsubr
            114 140 53 71 89 vhcurveto
            -77 callgsubr
            return
          </CharString>
          <CharString index="20">
            702 rmoveto
            -3 -29 -29 -1 -29 -89 -87 8 -89 hhcurveto
            -76 -41 -34 -80 -76 hvcurveto
            19 41 23 4 29 78 68 -8 78 hhcurveto
            29 29 1 3 29 hvcurveto
            -38 -30 -13 -12 -32 -35 -49 -55 -47 -58 -48 -56 -99 -116 -125 -161 -123 -88 rrcurveto
            428 hlineto
            65 98 67 44 46 hvcurveto
            -9 -25 -48 -16 -27 -78 -78 7 -78 hhcurveto
            -60 -40 -5 -7 -58 hvcurveto
            74 57 105 126 97 113 56 65 57 66 56 66 39 45 38 48 48 35 rrcurveto
            return
          </CharString>
          <CharString index="21">
            -86 callgsubr
            -281 69 -78 callgsubr
          </CharString>
          <CharString index="22">
            -39 callsubr
            -58 -250 -28 -17 -26 -18 -27 -18 rlinecurve
            68 hlineto
            -17 -72 -16 -72 -17 -72 -10 -40 -32 -48 -29 -29 rrcurveto
            return
          </CharString>
          <CharString index="23">
            -17 callgsubr
            58 -70 -51 callsubr
            return
          </CharString>
          <CharString index="24">
            -67 callsubr
            -93 59 -51 90 80 96 44 52 60 hvcurveto
            -59 callgsubr
            return
          </CharString>
          <CharString index="25">
            hlineto
            27 51 57 10 32 hvcurveto
            22 callgsubr
            33 27 25 54 10 42 -32 callgsubr
            36 hlineto
            28 51 56 10 32 hvcurveto
            return
          </CharString>
          <CharString index="26">
            -75 callsubr
            143 262 114 169 vhcurveto
            -53 callgsubr
            return
          </CharString>
          <CharString index="27">
            12 -43 -30 16 -49 hhcurveto
            -183 -177 -180 -183 -86 46 -45 86 60 56 44 30 48 -34 callsubr
            return
          </CharString>
          <CharString index="28">
            3 14 15 54 callgsubr
            8 -14 -21 -14 -3 -13 -3 -54 callgsubr
            return
          </CharString>
          <CharString index="29">
            rmoveto
            -71 -39 -70 -39 -67 -44 rrcurveto
            3 52 callgsubr
            23 6 -15 -20 -15 -3 -15 -3 -15 hvcurveto
            -66 -284 -20 -85 -24 -86 -57 -68 rlinecurve
            0 vlineto
            -12 -1 -13 -30 callsubr
            138 127 179 119 35 vhcurveto
            17 60 13 62 14 61 return
          </CharString>
          <CharString index="30">
            96 720 -87 callsubr
            return
          </CharString>
          <CharString index="31">
            399 551 -27 callsubr
            -128 -36 -12 -75 -104 hvcurveto
            -76 callgsubr
            -124 -77 -128 -65 callgsubr
            32 21 72 107 -82 callgsubr
            5 -54 3 -53 6 -54 2 -22 1 -24 5 -23 rrcurveto
            -46 7 35 -10 41 hhcurveto
            177 -61 callgsubr
            -178 hlineto
            -39 -15 35 33 -4 hvcurveto
            -9 66 -4 67 -5 66 rrcurveto
            142 hlineto
            23 45 4 callgsubr
            -233 hlineto
            -6 80 -5 79 -4 78 rrcurveto
            288 10 callgsubr
            -491 -376 -87 callgsubr
            return
          </CharString>
          <CharString index="32">
            684 rmoveto
            24 -93 8 -20 -110 -264 -125 -131 vhcurveto
            -148 313 43 -155 vvcurveto
            -104 -88 -40 -92 -37 -115 10 50 15 11 15 12 10 vhcurveto
            -33 -16 -103 -50 -40 vvcurveto
            -47 114 -15 34 return
          </CharString>
          <CharString index="33">
            79 40 200 102 100 vvcurveto
            32 -21 23 -32 -145 -190 -197 -151 -76 33 -62 84 return
          </CharString>
          <CharString index="34">
            -105 343 -80 callgsubr
            return
          </CharString>
          <CharString index="35">
            -157 -110 77 166 200 106 188 223 154 113 -80 -161 return
          </CharString>
          <CharString index="36">
            rmoveto
            -72 -39 -128 -89 -96 -48 74 89 72 38 126 90 95 49 -72 -89 vhcurveto
            return
          </CharString>
          <CharString index="37">
            303 490 rmoveto
            -41 callgsubr
            -71 -304 -48 callgsubr
            61 261 8 callgsubr
            return
          </CharString>
          <CharString index="38">
            rmoveto
            -33 -102 -98 -61 callsubr
            return
          </CharString>
          <CharString index="39">
            -58 callgsubr
            96 -51 80 -87 40 hvcurveto
            19 31 18 32 18 32 -31 -24 -69 -19 -16 -32 rrcurveto
            4 -21 -22 2 -22 47 callsubr
            -91 38 -76 83 -40 hvcurveto
            -18 -23 -19 -23 -19 -22 29 23 36 9 30 21 rrcurveto
            -11 35 37 -4 37 hhcurveto
            -55 callsubr
            -50 -53 8 23 -46 vhcurveto
            40 49 41 49 39 50 98 128 90 134 86 136 rrcurveto
            60 -45 24 -70 -72 vvcurveto
            -138 218 rmoveto
            -43 -70 -43 -70 -44 -69 -76 -119 -86 -114 -86 -111 rrcurveto
            -58 46 -22 70 72 vvcurveto
            200 106 188 223 44 44 -7 -16 41 vhcurveto
            return
          </CharString>
          <CharString index="40">
            -55 440 378 rmoveto
            18 1 104 63 17 vvcurveto
            6 -4 3 -4 2 vhcurveto
            17 -28 -29 5 -32 hhcurveto
            -163 -227 -182 -174 return
          </CharString>
          <CharString index="41">
            rlineto
            -3 -12 -2 -11 -12 vvcurveto
            -20 7 -15 22 37 61 52 callsubr
            -7 -8 -2 -8 hhcurveto
            -19 -8 13 18 27 15 51 7 26 hvcurveto
            38 -54 38 -55 41 -52 rrcurveto
            -19 15 17 -19 26 hhcurveto
            57 70 50 39 38 hvcurveto
            -163 273 rmoveto
            -72 -116 -56 -58 -21 vhcurveto
            55 13 30 146 73 hhcurveto
            31 27 -18 -34 hvcurveto
            return
          </CharString>
          <CharString index="42">
            -42 callsubr
            104 447 -22 callsubr
            -129 -558 -64 callgsubr
            return
          </CharString>
          <CharString index="43">
            -2 -11 -10 -55 callgsubr
            return
          </CharString>
          <CharString index="44">
            rmoveto
            76 159 102 85 46 -36 33 -45 -80 -158 -107 -86 -48 41 -25 43 hvcurveto
            125 121 rmoveto
            -21 3 callsubr
            31 47 vvcurveto
            15 3 42 21 44 29 -37 -42 vhcurveto
            endchar
          </CharString>
          <CharString index="45">
            26 -66 rlineto
            3 6 12 8 7 hhcurveto
            9 return
          </CharString>
          <CharString index="46">
            -66 -17 vhcurveto
            61 3 37 143 77 hhcurveto
            34 17 -25 -31 hvcurveto
            return
          </CharString>
          <CharString index="47">
            -2 -9 -10 -38 callgsubr
            3 13 2 12 hvcurveto
            return
          </CharString>
          <CharString index="48">
            162 829 689 rmoveto
            22 -115 11 -20 -265 -322 -224 -287 -137 76 -95 142 return
          </CharString>
          <CharString index="49">
            304 755 -2 callgsubr
            -55 -237 rlineto
            -364 hlineto
            56 237 -14 callgsubr
            -121 -519 -12 -52 -14 -35 -45 -30 rlinecurve
            165 hlineto
            25 67 63 3 19 3 callgsubr
            33 144 rcurveline
            364 hlineto
            -50 -216 -14 -57 -14 -21 -44 -39 rlinecurve
            166 -18 callgsubr
            -156 hlineto
            43 46 6 17 15 60 -32 callgsubr
            26 0 callsubr
            return
          </CharString>
          <CharString index="50">
            -31 callsubr
            -37 -160 -56 callsubr
            -101 -29 -21 callgsubr
            return
          </CharString>
          <CharString index="51">
            rlineto
            2 -11 -11 1 -11 hhcurveto
            -178 -206 -170 -185 -90 51 -49 90 60 69 43 31 50 17 callgsubr
            26 52 45 callgsubr
            -10 -9 -38 callgsubr
            2 13 3 12 hvcurveto
            return
          </CharString>
          <CharString index="52">
            440 455 rmoveto
            -188 -122 -202 -207 return
          </CharString>
          <CharString index="53">
            -66 -49 -22 -29 vhcurveto
            3 7 -25 callsubr
            return
          </CharString>
          <CharString index="54">
            -51 callgsubr
            91 hlineto
            return
          </CharString>
          <CharString index="55">
            hlineto
            24 -44 callgsubr
            return
          </CharString>
          <CharString index="56">
            110 67 rlineto
            return
          </CharString>
          <CharString index="57">
            rmoveto
            -6 -35 -7 -37 -12 -34 16 8 91 49 3 10 11 23 9 56 5 27 rrcurveto
            -74 -338 -78 callsubr
            rrcurveto
            endchar
          </CharString>
          <CharString index="58">
            -36 callsubr
            -17 hvcurveto
            return
          </CharString>
          <CharString index="59">
            -11 -19 -30 -11 -21 hhcurveto
            -47 3 39 35 -3 hvcurveto
            return
          </CharString>
          <CharString index="60">
            -16 -33 -47 -15 -37 hhcurveto
            -80 -45 43 80 -3 hvcurveto
            return
          </CharString>
          <CharString index="61">
            -36 8 callsubr
            144 134 187 127 29 vhcurveto
            94 398 rlineto
            87 hlineto
            26 60 61 6 25 hvcurveto
            -183 hlineto
            21 93 18 114 68 72 rrcurveto
            5 17 18 1 18 hhcurveto
            return
          </CharString>
          <CharString index="62">
            198 48 rmoveto
            23 -29 62 0 11 callgsubr
            4 8 -30 callgsubr
            14 44 35 31 callgsubr
            return
          </CharString>
          <CharString index="63">
            -77 -24 callgsubr
            return
          </CharString>
          <CharString index="64">
            rrcurveto
            5 14 15 -5 callsubr
            25 21 -7 -29 return
          </CharString>
          <CharString index="65">
            36 566 66 rmoveto
            -4 -13 -18 -8 -14 hhcurveto
            -26 -13 8 27 13 3 13 3 12 hvcurveto
            57 248 rlineto
            -28 callsubr
            7 vvcurveto
            50 -44 -26 callsubr
            return
          </CharString>
          <CharString index="66">
            -38 callsubr
            -156 hlineto
            return
          </CharString>
          <CharString index="67">
            55 callgsubr
            -11 -1 -10 -12 callgsubr
            4 18 hvcurveto
            return
          </CharString>
          <CharString index="68">
            -49 callsubr
            91 hlineto
            return
          </CharString>
          <CharString index="69">
            67 63 3 19 hvcurveto
            return
          </CharString>
          <CharString index="70">
            -268 -290 -251 -276 return
          </CharString>
          <CharString index="71">
            -7 callgsubr
            -12 return
          </CharString>
          <CharString index="72">
            hlineto
            -15 -20 callsubr
            return
          </CharString>
          <CharString index="73">
            hvcurveto
            -3 -11 -3 -12 -13 vvcurveto
            return
          </CharString>
          <CharString index="74">
            49 callgsubr
            -5 -4 vvcurveto
            -19 11 -10 18 return
          </CharString>
          <CharString index="75">
            -25 callgsubr
            -12 return
          </CharString>
          <CharString index="76">
            670 833 rmoveto
            -73 -33 -68 -46 -68 -43 rrcurveto
            3 15 14 38 callsubr
            9 -14 -22 -14 -4 -14 -3 -13 hvcurveto
            return
          </CharString>
          <CharString index="77">
            -9 callsubr
            -20 -99 -38 -36 8 callsubr
            return
          </CharString>
          <CharString index="78">
            -37 67 -41 63 -39 65 -64 105 -68 102 -70 101 return
          </CharString>
          <CharString index="79">
            2 7 1 7 return
          </CharString>
          <CharString index="80">
            703 rmoveto
            return
          </CharString>
          <CharString index="81">
            28 -46 -63 -77 -44 -36 -50 vhcurveto
            return
          </CharString>
          <CharString index="82">
            8 2 8 hhcurveto
            19 return
          </CharString>
          <CharString index="83">
            -71 -33 -72 -48 -66 -41 return
          </CharString>
          <CharString index="84">
            rmoveto
            -1 23 -28 62 0 vvcurveto
            29 callgsubr
            16 10 8 hhcurveto
            11 4 6 callgsubr
            13 rrcurveto
            44 36 39 57 58 vvcurveto
            endchar
          </CharString>
          <CharString index="85">
            -71 -39 -70 -39 -67 -44 rlinecurve
            4 52 callgsubr
            22 7 -16 -20 -14 -3 -14 -3 -13 hvcurveto
            return
          </CharString>
          <CharString index="86">
            11 9 42 45 49 30 25 hvcurveto
            -15 -13 -22 -5 -16 -14 rrcurveto
            -44 -35 -39 -57 -57 vvcurveto
            -4 vlineto
            return
          </CharString>
          <CharString index="87">
            -77 0 callgsubr
            return
          </CharString>
          <CharString index="88">
            -48 -16 -5 41 -51 50 -44 50 -42 -73 -43 -71 -49 -63 -57 37 18 39 18 31 27 37 return
          </CharString>
          <CharString index="89">
            hlineto
            25 -38 callsubr
            return
          </CharString>
          <CharString index="90">
            94 257 -32 callsubr
            -18 hvcurveto
            256 hlineto
            return
          </CharString>
          <CharString index="91">
            -4 callsubr
            -18 -28 -18 -15 callgsubr
            -26 -2 -6 -7 vhcurveto
            return
          </CharString>
          <CharString index="92">
            rmoveto
            -6 -36 -9 -35 -10 -35 15 9 91 49 4 9 11 20 10 62 4 24 rrcurveto
            return
          </CharString>
          <CharString index="93">
            -17 rrcurveto
            49 24 163 82 62 vvcurveto
            26 -30 6 -20 -10 return
          </CharString>
          <CharString index="94">
            -15 -78 -24 callgsubr
            92 hlineto
            return
          </CharString>
          <CharString index="95">
            17 18 17 17 17 19 rrcurveto
            28 31 46 89 43 vvcurveto
            9 -2 10 -12 -37 2 callsubr
            -5 -41 vhcurveto
            endchar
          </CharString>
          <CharString index="96">
            -14 -13 -13 return
          </CharString>
          <CharString index="97">
            1 callgsubr
            -32 hhcurveto
            -39 -29 31 39 return
          </CharString>
          <CharString index="98">
            25 callsubr
            7 callgsubr
            vhcurveto
            -27 return
          </CharString>
          <CharString index="99">
            -18 callgsubr
            endchar
          </CharString>
          <CharString index="100">
            -41 hvcurveto
            11 17 28 13 20 hhcurveto
            return
          </CharString>
          <CharString index="101">
            68 4 callgsubr
            return
          </CharString>
          <CharString index="102">
            3 15 hhcurveto
            return
          </CharString>
          <CharString index="103">
            0 vvcurveto
            0 28 8 18 21 26 -4 -27 -22 return
          </CharString>
          <CharString index="104">
            -51 -43 -36 rlinecurve
            619 415 rmoveto
            -212 return
          </CharString>
          <CharString index="105">
            -141 -119 -133 -129 -122 33 return
          </CharString>
          <CharString index="106">
            -19 vhcurveto
            -4 -19 -20 -3 -21 hhcurveto
            -19 -83 4 27 8 7 7 6 4 hvcurveto
            -24 -18 -99 -38 -29 vvcurveto
            -27 84 -5 19 return
          </CharString>
          <CharString index="107">
            55 callsubr
            64 14 callgsubr
            return
          </CharString>
          <CharString index="108">
            -12 -18 hvcurveto
            return
          </CharString>
          <CharString index="109">
            -53 -36 -26 -27 vhcurveto
            19 1 0 -40 -12 vvcurveto
            -42 -8 -40 return
          </CharString>
          <CharString index="110">
            -7 -19 -10 -17 vhcurveto
            -47 1 -33 return
          </CharString>
          <CharString index="111">
            5 9 6 9 6 22 13 21 13 21 13 -21 -90 -20 -92 -22 -91 -14 -60 -9 2 -40 -43 rrcurveto
            return
          </CharString>
          <CharString index="112">
            -138 -3 callgsubr
            150 -8 callsubr
          </CharString>
          <CharString index="113">
            24 callgsubr
            70 161 rrcurveto
            return
          </CharString>
          <CharString index="114">
            108 rmoveto
            49 14 48 34 42 30 1 1 2 0 1 2 -5 -2 -6 -3 -5 -2 rrcurveto
            -8 return
          </CharString>
          <CharString index="115">
            vvcurveto
            -14 15 -3 11 return
          </CharString>
          <CharString index="116">
            -37 -18 -39 -19 -31 -26 -37 -32 -34 -30 -43 -24 return
          </CharString>
          <CharString index="117">
            rmoveto
            -70 callgsubr
            return
          </CharString>
          <CharString index="118">
            -17 hvcurveto
            91 hlineto
            return
          </CharString>
          <CharString index="119">
            -27 callsubr
            -15 return
          </CharString>
          <CharString index="120">
            -11 -9 -42 -45 -49 return
          </CharString>
          <CharString index="121">
            -10 callsubr
            34 23 33 26 26 hvcurveto
            return
          </CharString>
          <CharString index="122">
            31 49 37 66 vvcurveto
            73 -85 5 -54 2 vhcurveto
            67 46 67 47 55 60 rrcurveto
            return
          </CharString>
          <CharString index="123">
            rmoveto
            29 12 20 38 7 28 68 28 callsubr
            -5 -14 return
          </CharString>
          <CharString index="124">
            -25 callsubr
            6 return
          </CharString>
          <CharString index="125">
            -1 -16 hhcurveto
            64 274 -27 -16 -65 -29 -18 -21 rlinecurve
            -74 -83 -68 -65 return
          </CharString>
          <CharString index="126">
            hlineto
            28 53 59 7 29 hvcurveto
            return
          </CharString>
          <CharString index="127">
            13 17 6 1 6 return
          </CharString>
          <CharString index="128">
            rmoveto
            -25 -67 -63 -3 return
          </CharString>
          <CharString index="129">
            -7 -1 -6 hhcurveto
            -78 -36 65 70 62 30 69 42 45 hvcurveto
            1 4 return
          </CharString>
          <CharString index="130">
            130 182 185 127 70 return
          </CharString>
          <CharString index="131">
            -22 -34 -21 52 -43 48 -50 47 -48 return
          </CharString>
          <CharString index="132">
            5 14 vvcurveto
            11 return
          </CharString>
          <CharString index="133">
            264 446 rmoveto
            -111 -67 33 -81 110 66 rlineto
            return
          </CharString>
          <CharString index="134">
            -13 4 -12 vhcurveto
            110 66 rlineto
            -3 12 -2 13 13 vvcurveto
            return
          </CharString>
          <CharString index="135">
            294 rcurveline
            -23 -12 -173 -88 return
          </CharString>
          <CharString index="136">
            3 13 callsubr
            return
          </CharString>
          <CharString index="137">
            -8 callgsubr
            30 return
          </CharString>
          <CharString index="138">
            rlinecurve
            170 hlineto
            25 return
          </CharString>
          <CharString index="139">
            -1 -10 hhcurveto
            return
          </CharString>
          <CharString index="140">
            4 20 hvcurveto
            return
          </CharString>
          <CharString index="141">
            -8 -1 -8 return
          </CharString>
          <CharString index="142">
            182 rmoveto
            return
          </CharString>
          <CharString index="143">
            -25 -36 -21 -4 -21 -5 -20 hvcurveto
            -43 -184 rlineto
            return
          </CharString>
          <CharString index="144">
            -27 -31 hhcurveto
            -39 -30 31 39 return
          </CharString>
          <CharString index="145">
            4 15 hhcurveto
            23 return
          </CharString>
          <CharString index="146">
            hvcurveto
            -156 return
          </CharString>
          <CharString index="147">
            42 23 35 20 34 22 34 21 rrcurveto
            endchar
          </CharString>
          <CharString index="148">
            161 hlineto
            return
          </CharString>
          <CharString index="149">
            rmoveto
            -28 -27 -50 -7 -35 -35 rrcurveto
            -2 -2 return
          </CharString>
          <CharString index="150">
            0 5 hhcurveto
            77 47 -53 -75 hvcurveto
            endchar
          </CharString>
          <CharString index="151">
            -80 -42 -42 vhcurveto
            -1 -6 return
          </CharString>
          <CharString index="152">
            63 33 callsubr
            return
          </CharString>
          <CharString index="153">
            rmoveto
            -32 -22 -54 -17 -25 -27 -3 -4 return
          </CharString>
          <CharString index="154">
            hhcurveto
            -37 callsubr
            return
          </CharString>
          <CharString index="155">
            35 4 17 rlinecurve
            139 599 rlineto
            return
          </CharString>
          <CharString index="156">
            111 hlineto
            return
          </CharString>
          <CharString index="157">
            38 callsubr
            8 -15 -21 -13 return
          </CharString>
          <CharString index="158">
            25 -6 callsubr
            endchar
          </CharString>
          <CharString index="159">
            49 22 31 vhcurveto
            -3 return
          </CharString>
          <CharString index="160">
            -50 -50 -22 -24 -43 return
          </CharString>
          <CharString index="161">
            -7 -7 -37 -16 return
          </CharString>
          <CharString index="162">
            hlineto
            24 68 return
          </CharString>
        <CharString name=".notdef">
          -269 endchar
        </CharString>
        <CharString name="A">
          176 -106 callsubr
          endchar
        </CharString>
        <CharString name="AE">
          -76 callsubr
          endchar
        </CharString>
        <CharString name="AEacute">
          -76 callsubr
          260 626 -104 callsubr
        </CharString>
        <CharString name="Aacute">
          -100 callsubr
          202 628 -104 callsubr
        </CharString>
        <CharString name="Abreve">
          176 -106 callsubr
          285 598 -96 callsubr
        </CharString>
        <CharString name="Acircumflex">
          -100 callsubr
          215 486 -106 callgsubr
        </CharString>
        <CharString name="Adieresis">
          -100 callsubr
          216 560 -86 callsubr
        </CharString>
        <CharString name="Agrave">
          -100 callsubr
          73 491 -96 callgsubr
        </CharString>
        <CharString name="Amacron">
          176 -106 callsubr
          -62 479 -67 callgsubr
        </CharString>
        <CharString name="Aogonek">
          176 718 -97 rmoveto
          -12 -29 -38 37 callsubr
          21 8 20 13 18 hvcurveto
          51 10 77 54 37 25 rrcurveto
          -48 callsubr
          -19 189 -11 190 -13 190 rrcurveto
          -143 -33 -2 -85 -118 hvcurveto
          -101 callgsubr
          2 -20 3 -18 13 -9 rrcurveto
          -48 -36 -39 -47 -50 -49 callgsubr
          -229 424 -87 callgsubr
          endchar
        </CharString>
        <CharString name="Aring">
          176 736 82 rmoveto
          -48 callsubr
          -18 180 -11 181 -13 181 rrcurveto
          65 37 62 59 53 vvcurveto
          47 -37 32 -45 -80 -158 -106 -87 -11 2 -11 5 -8 vhcurveto
          -32 -13 -32 -20 -45 -32 rrcurveto
          -105 callsubr
          105 432 rmoveto
          -20 3 callsubr
          30 47 vvcurveto
          16 4 41 20 44 29 -37 -42 vhcurveto
          endchar
        </CharString>
        <CharString name="Atilde">
          -100 callsubr
          278 542 -88 callgsubr
        </CharString>
        <CharString name="B">
          96 494 413 rmoveto
          78 45 89 52 102 vvcurveto
          83 -84 8 -64 vhcurveto
          -231 -28 callgsubr
          107 hlineto
          -125 -535 -11 -52 -9 -10 -35 -39 rlinecurve
          49 callsubr
          35 36 0 8 34 hvcurveto
          114 26 201 120 135 vvcurveto
          80 -65 36 -71 8 vhcurveto
          57 131 rmoveto
          -60 -24 -53 -62 -18 vhcurveto
          2 -17 -18 0 -18 hhcurveto
          -30 -30 -1 -1 -30 hvcurveto
          53 226 rlineto
          11 11 1 12 hhcurveto
          65 77 -15 -81 hvcurveto
          -32 -316 rmoveto
          -109 -70 -53 -103 vhcurveto
          -136 hlineto
          25 27 22 41 8 35 14 60 14 60 14 59 rrcurveto
          85 127 -7 -113 hvcurveto
          endchar
        </CharString>
        <CharString name="C">
          -88 callsubr
          endchar
        </CharString>
        <CharString name="Cacute">
          -88 callsubr
          -70 247 -104 callsubr
        </CharString>
        <CharString name="Ccaron">
          -88 callsubr
          -58 232 -100 callgsubr
        </CharString>
        <CharString name="Ccedilla">
          -59 callsubr
          14 15 1 1 14 vhcurveto
          -63 -45 -71 -54 -4 callsubr
          -17 -28 -19 -11 vhcurveto
          -22 -14 -24 -12 -21 -17 rrcurveto
          49 24 164 82 62 vvcurveto
          26 -31 6 -20 -10 -25 -2 -6 -8 vhcurveto
          43 37 100 14 108 46 74 59 rlinecurve
          -77 callgsubr
          endchar
        </CharString>
        <CharString name="Ccircumflex">
          -88 callsubr
          -66 127 -106 callgsubr
        </CharString>
        <CharString name="Cdotaccent">
          -88 callsubr
          -213 208 -78 callgsubr
        </CharString>
        <CharString name="D">
          -42 callgsubr
          endchar
        </CharString>
        <CharString name="Dcaron">
          -42 callgsubr
          47 517 -100 callgsubr
        </CharString>
        <CharString name="Dcroat">
          -52 callgsubr
        </CharString>
        <CharString name="E">
          -102 callgsubr
          endchar
        </CharString>
        <CharString name="Eacute">
          -102 callgsubr
          12 248 -104 callsubr
        </CharString>
        <CharString name="Ebreve">
          -102 callgsubr
          6 228 -96 callsubr
        </CharString>
        <CharString name="Ecaron">
          -102 callgsubr
          -5 211 -100 callgsubr
        </CharString>
        <CharString name="Ecircumflex">
          -102 callgsubr
          -26 112 -106 callgsubr
        </CharString>
        <CharString name="Edieresis">
          -102 callgsubr
          -84 185 -86 callsubr
        </CharString>
        <CharString name="Edotaccent">
          -102 callgsubr
          -191 173 -78 callgsubr
        </CharString>
        <CharString name="Egrave">
          -102 callgsubr
          -145 115 -96 callgsubr
        </CharString>
        <CharString name="Emacron">
          -102 callgsubr
          -344 113 -67 callgsubr
        </CharString>
        <CharString name="Eng">
          378 868 -32 callsubr
          -18 hvcurveto
          88 hlineto
          -25 -158 -37 -157 -50 -154 -29 callsubr
          14 11 19 16 17 6 rrcurveto
          -184 hlineto
          -15 -78 -24 callgsubr
          49 callsubr
          -26 -148 -30 -148 -38 -146 -20 -78 -14 -61 -64 -55 rrcurveto
          36 callgsubr
          15 78 55 11 17 hvcurveto
          -157 hlineto
          11 11 10 11 9 12 46 58 57 279 17 89 49 -71 47 -73 45 -73 44 -73 45 -73 43 -75 rrcurveto
          12 -21 25 -44 -23 -2 0 -2 -2 vvcurveto
          -102 -26 -88 -87 -110 hhcurveto
          -27 -103 7 42 14 23 14 11 6 hvcurveto
          -47 -16 -44 -29 -36 -33 rrcurveto
          -6 -5 -7 -6 -8 vvcurveto
          -30 96 -23 24 150 241 176 136 59 vhcurveto
          75 173 59 228 33 186 36 9 44 49 28 8 rrcurveto
          endchar
        </CharString>
        <CharString name="Eogonek">
          45 500 14 callsubr
          14 -93 callsubr
          -403 hlineto
          -85 callsubr
          270 hlineto
          -63 -36 -67 -60 -65 vvcurveto
          -38 25 -31 39 -40 callgsubr
          0 vlineto
          endchar
        </CharString>
        <CharString name="Eth">
          -52 callgsubr
        </CharString>
        <CharString name="Euro">
          310 939 670 rmoveto
          22 -115 10 -20 -190 -216 -121 -155 -107 vhcurveto
          -56 hlineto
          -15 -78 -54 -12 -17 hvcurveto
          127 hlineto
          -6 -15 -6 -16 -5 -16 rrcurveto
          -27 -35 callsubr
          125 hlineto
          -1 -9 0 -9 -8 vvcurveto
          -135 88 -87 134 114 141 49 74 88 vhcurveto
          -35 -64 -92 -20 -71 hhcurveto
          -125 -82 57 127 -18 hvcurveto
          66 4 78 35 43 52 rrcurveto
          -14 -22 -37 -16 -26 hhcurveto
          -104 1 1 16 2 17 4 16 rlinecurve
          72 4 88 34 49 55 rrcurveto
          -14 -23 -36 -15 -27 hhcurveto
          -100 hlineto
          150 69 90 59 165 hhcurveto
          20 121 -10 -21 -4 -20 -14 -5 -3 hvcurveto
          42 14 51 28 33 31 rrcurveto
          1 2 9 9 3 vvcurveto
          endchar
        </CharString>
        <CharString name="F">
          21 297 -2 callgsubr
          -65 -279 -27 -17 -27 -18 -27 -18 rlinecurve
          69 hlineto
          -14 -62 -15 -63 -15 -62 -9 -38 -34 -50 -28 -29 rrcurveto
          166 39 callgsubr
          63 3 20 32 callgsubr
          32 23 23 65 8 35 27 115 rcurveline
          142 10 callgsubr
          -236 hlineto
          61 265 rlineto
          240 10 callgsubr
          endchar
        </CharString>
        <CharString name="G">
          -90 callgsubr
          endchar
        </CharString>
        <CharString name="Gbreve">
          -90 callgsubr
          -117 264 -96 callsubr
        </CharString>
        <CharString name="Gcircumflex">
          -90 callgsubr
          -130 155 -106 callgsubr
        </CharString>
        <CharString name="Gcommaaccent">
          -90 callgsubr
          -439 -808 -92 callgsubr
        </CharString>
        <CharString name="Gdotaccent">
          -90 callgsubr
          -300 213 -78 callgsubr
        </CharString>
        <CharString name="H">
          -58 callsubr
          endchar
        </CharString>
        <CharString name="Hbar">
          304 755 -2 callgsubr
          -26 -112 rlineto
          -364 hlineto
          27 112 -14 callgsubr
          -27 -112 rlineto
          -6 20 callgsubr
          101 hlineto
          -79 -341 -12 -52 -14 -35 -45 -30 rlinecurve
          165 hlineto
          25 67 63 3 19 3 callgsubr
          33 144 rcurveline
          364 hlineto
          -50 -216 -14 -57 -14 -21 -44 -39 rlinecurve
          166 -18 callgsubr
          -156 hlineto
          43 46 6 17 15 60 62 269 rcurveline
          7 -18 callsubr
          -103 hlineto
          27 112 rlineto
          26 0 callsubr
          -651 -304 rmoveto
          14 59 rlineto
          364 hlineto
          -14 -59 rlineto
          endchar
        </CharString>
        <CharString name="Hcircumflex">
          -58 callsubr
          -146 107 -106 callgsubr
        </CharString>
        <CharString name="I">
          -92 callsubr
          endchar
        </CharString>
        <CharString name="IJ">
          194 297 703 rmoveto
          -71 callgsubr
          166 -81 callgsubr
          136 hmoveto
          -66 callgsubr
          endchar
        </CharString>
        <CharString name="Iacute">
          -92 callsubr
          65 269 -104 callsubr
        </CharString>
        <CharString name="Ibreve">
          -92 callsubr
          74 240 -96 callsubr
        </CharString>
        <CharString name="Icircumflex">
          -92 callsubr
          28 116 -106 callgsubr
        </CharString>
        <CharString name="Idieresis">
          -92 callsubr
          185 vmoveto
          -84 callsubr
          -281 69 -78 callgsubr
        </CharString>
        <CharString name="Idotaccent">
          -92 callsubr
          -108 183 -78 callgsubr
        </CharString>
        <CharString name="Igrave">
          -92 callsubr
          -82 116 -96 callgsubr
        </CharString>
        <CharString name="Imacron">
          -92 callsubr
          -247 111 -67 callgsubr
        </CharString>
        <CharString name="Iogonek">
          -152 328 14 callsubr
          42 -81 callgsubr
          -223 hlineto
          -71 callgsubr
          97 hlineto
          -63 -36 -67 -60 -65 -33 callgsubr
        </CharString>
        <CharString name="Itilde">
          -92 callsubr
          111 150 -88 callgsubr
        </CharString>
        <CharString name="J">
          -43 callgsubr
          endchar
        </CharString>
        <CharString name="Jcircumflex">
          -43 callgsubr
          27 107 -106 callgsubr
        </CharString>
        <CharString name="K">
          302 692 -20 callgsubr
          85 hlineto
          -40 -36 -44 -34 -42 -34 -75 -59 -74 -59 -75 -59 77 -94 77 -94 80 -89 rrcurveto
          -36 32 33 -44 52 hhcurveto
          63 89 52 38 49 hvcurveto
          -8 -20 -39 -15 -20 hhcurveto
          -43 -32 24 29 -29 hvcurveto
          -35 35 -30 40 -32 38 -51 64 -52 64 -50 65 90 69 91 69 86 74 rrcurveto
          72 hlineto
          26 56 57 10 29 hvcurveto
          -588 hmoveto
          -13 callsubr
          -109 -466 -13 -56 -25 -76 -45 -38 rlinecurve
          165 hlineto
          25 66 63 3 -1 callgsubr
          -32 callgsubr
          -13 callgsubr
          endchar
        </CharString>
        <CharString name="Kcommaaccent">
          302 692 -20 callgsubr
          85 hlineto
          -40 -36 -44 -34 -42 -34 -75 -59 -74 -59 -75 -59 77 -94 77 -94 80 -89 rrcurveto
          -36 32 33 -44 52 hhcurveto
          63 89 52 38 49 hvcurveto
          -8 -20 -39 -15 -20 hhcurveto
          -43 -32 24 29 -29 hvcurveto
          -35 35 -30 40 -32 38 -51 64 -52 64 -50 65 90 69 91 69 86 74 rrcurveto
          72 hlineto
          26 56 57 10 29 hvcurveto
          -588 hmoveto
          -13 callsubr
          -109 -466 -13 -56 -25 -76 -45 -38 rlinecurve
          165 hlineto
          25 66 63 3 -1 callgsubr
          -32 callgsubr
          -13 callgsubr
          -58 -815 -92 callgsubr
        </CharString>
        <CharString name="L">
          36 -83 callgsubr
          endchar
        </CharString>
        <CharString name="Lacute">
          36 -83 callgsubr
          29 853 -104 callsubr
        </CharString>
        <CharString name="Lcaron">
          36 -83 callgsubr
          91 588 -74 callgsubr
          endchar
        </CharString>
        <CharString name="Lcommaaccent">
          36 -83 callgsubr
          -244 -228 -92 callgsubr
        </CharString>
        <CharString name="Ldot">
          136 -83 callgsubr
          89 333 rmoveto
          -16 callgsubr
          38 callgsubr
        </CharString>
        <CharString name="Lslash">
          35 574 93 rmoveto
          -18 -26 -41 -9 -29 hhcurveto
          -215 hlineto
          -63 hlineto
          2 hlineto
          29 17 22 36 7 31 13 55 13 55 13 55 75 36 72 41 67 48 rrcurveto
          -12 -24 -27 -5 -26 hhcurveto
          -10 -12 0 3 -9 hvcurveto
          -31 -23 -31 -21 -33 -19 63 273 rcurveline
          37 0 callsubr
          -223 hlineto
          -53 callsubr
          -77 -331 -29 -15 -28 -17 -29 -16 rlinecurve
          3 -11 25 7 25 9 25 9 rlinecurve
          -36 -154 -12 -55 -20 -27 -43 -35 rlinecurve
          315 hlineto
          60 75 51 42 42 hvcurveto
          endchar
        </CharString>
        <CharString name="M">
          576 1111 717 rmoveto
          -28 -16 -62 -28 -20 -22 -44 -50 -41 -56 -41 -53 -88 -112 -87 -114 -90 -112 -19 96 -39 90 -33 92 -34 90 -33 91 -33 90 rrcurveto
          -123 hlineto
          -14 -81 -55 -12 -15 hvcurveto
          123 hlineto
          -47 -154 -48 -155 -55 -152 -18 -48 -38 -95 -41 -32 rrcurveto
          41 callsubr
          15 78 55 11 17 32 callgsubr
          52 44 38 122 22 65 23 69 23 69 22 69 48 -129 rcurveline
          42 -115 50 -113 12 -123 21 12 78 42 12 12 14 16 13 19 14 18 24 31 23 32 25 30 83 104 83 106 84 104 -12 -67 -12 -66 -13 -67 -15 -83 -14 -82 -19 -82 rrcurveto
          -9 -40 -11 -32 -28 -31 rrcurveto
          145 hlineto
          26 53 56 10 31 hvcurveto
          -144 hlineto
          27 32 15 41 9 40 8 33 4 34 6 33 28 146 27 146 26 146 rrcurveto
          endchar
        </CharString>
        <CharString name="N">
          378 866 -20 callgsubr
          87 hlineto
          -24 -158 -38 -158 -49 -153 -29 callsubr
          15 12 16 14 18 7 rrcurveto
          -184 hlineto
          -51 callgsubr
          49 callsubr
          -25 -141 -29 -140 -33 -139 -19 -81 -24 -73 -57 -62 rrcurveto
          160 hlineto
          16 77 55 11 18 hvcurveto
          -158 hlineto
          66 59 18 108 19 82 48 211 rcurveline
          96 -143 91 -145 85 -150 rrcurveto
          18 -29 20 -32 -35 -3 0 -3 -3 vvcurveto
          21 14 57 34 12 19 10 15 6 19 7 17 51 125 45 124 31 131 12 52 15 51 9 53 41 11 30 42 37 13 rrcurveto
          endchar
        </CharString>
        <CharString name="Nacute">
          378 866 -20 callgsubr
          87 hlineto
          -24 -158 -38 -158 -49 -153 -29 callsubr
          15 12 16 14 18 7 rrcurveto
          -184 hlineto
          -51 callgsubr
          49 callsubr
          -25 -141 -29 -140 -33 -139 -19 -81 -24 -73 -57 -62 rrcurveto
          160 hlineto
          16 77 55 11 18 hvcurveto
          -158 hlineto
          66 59 18 108 19 82 48 211 rcurveline
          96 -143 91 -145 85 -150 rrcurveto
          18 -29 20 -32 -35 -3 0 -3 -3 vvcurveto
          21 14 57 34 12 19 10 15 6 19 7 17 51 125 45 124 31 131 12 52 15 51 9 53 41 11 30 42 37 13 rrcurveto
          -135 200 -104 callsubr
        </CharString>
        <CharString name="Ncaron">
          378 866 -20 callgsubr
          87 hlineto
          -24 -158 -38 -158 -49 -153 -29 callsubr
          15 12 16 14 18 7 rrcurveto
          -184 hlineto
          -51 callgsubr
          49 callsubr
          -25 -141 -29 -140 -33 -139 -19 -81 -24 -73 -57 -62 rrcurveto
          160 hlineto
          16 77 55 11 18 hvcurveto
          -158 hlineto
          66 59 18 108 19 82 48 211 rcurveline
          96 -143 91 -145 85 -150 rrcurveto
          18 -29 20 -32 -35 -3 0 -3 -3 vvcurveto
          21 14 57 34 12 19 10 15 6 19 7 17 51 125 45 124 31 131 12 52 15 51 9 53 41 11 30 42 37 13 rrcurveto
          -163 172 -100 callgsubr
        </CharString>
        <CharString name="Ncommaaccent">
          378 866 -20 callgsubr
          87 hlineto
          -24 -158 -38 -158 -49 -153 -29 callsubr
          15 12 16 14 18 7 rrcurveto
          -184 hlineto
          -51 callgsubr
          49 callsubr
          -25 -141 -29 -140 -33 -139 -19 -81 -24 -73 -57 -62 rrcurveto
          160 hlineto
          16 77 55 11 18 hvcurveto
          -158 hlineto
          66 59 18 108 19 82 48 211 rcurveline
          96 -143 91 -145 85 -150 rrcurveto
          18 -29 20 -32 -35 -3 0 -3 -3 vvcurveto
          21 14 57 34 12 19 10 15 6 19 7 17 51 125 45 124 31 131 12 52 15 51 9 53 41 11 30 42 37 13 rrcurveto
          -549 -838 -92 callgsubr
        </CharString>
        <CharString name="Ntilde">
          378 866 -20 callgsubr
          87 hlineto
          -24 -158 -38 -158 -49 -153 -29 callsubr
          15 12 16 14 18 7 rrcurveto
          -184 hlineto
          -51 callgsubr
          49 callsubr
          -25 -141 -29 -140 -33 -139 -19 -81 -24 -73 -57 -62 rrcurveto
          160 hlineto
          16 77 55 11 18 hvcurveto
          -158 hlineto
          66 59 18 108 19 82 48 211 rcurveline
          96 -143 91 -145 85 -150 rrcurveto
          18 -29 20 -32 -35 -3 0 -3 -3 vvcurveto
          21 14 57 34 12 19 10 15 6 19 7 17 51 125 45 124 31 131 12 52 15 51 9 53 41 11 30 42 37 13 rrcurveto
          -105 168 -88 callgsubr
        </CharString>
        <CharString name="O">
          -97 callsubr
          endchar
        </CharString>
        <CharString name="OE">
          642 894 -27 callsubr
          -11 -40 -27 -6 -9 hvcurveto
          38 -49 -62 16 -61 hhcurveto
          -57 callgsubr
          144 148 92 99 97 hvcurveto
          -12 -62 -22 -44 -45 -45 rrcurveto
          311 hlineto
          29 123 70 22 23 hvcurveto
          -9 -23 -46 -17 -24 hhcurveto
          -272 hlineto
          30 14 21 63 7 31 37 159 rcurveline
          142 hlineto
          53 callgsubr
          hvcurveto
          -236 hlineto
          55 35 callgsubr
          217 hlineto
          28 54 59 8 28 hvcurveto
          -485 -320 rmoveto
          -26 -16 -25 -17 -25 -17 rrcurveto
          68 hlineto
          -166 -34 -102 -142 -184 hhcurveto
          -72 callsubr
          hvcurveto
          -11 -1 -10 -11 vvcurveto
          endchar
        </CharString>
        <CharString name="Oacute">
          -97 callsubr
          -27 570 -104 callsubr
        </CharString>
        <CharString name="Obreve">
          -97 callsubr
          17 530 -96 callsubr
        </CharString>
        <CharString name="Ocircumflex">
          -97 callsubr
          -32 413 -106 callgsubr
        </CharString>
        <CharString name="Odieresis">
          -97 callsubr
          2 491 -86 callsubr
        </CharString>
        <CharString name="Ograve">
          -97 callsubr
          -155 420 -96 callgsubr
        </CharString>
        <CharString name="Ohungarumlaut">
          -97 callsubr
          93 564 -79 callgsubr
        </CharString>
        <CharString name="Omacron">
          -97 callsubr
          -279 424 -67 callgsubr
        </CharString>
        <CharString name="Oslash">
          -68 callsubr
          endchar
        </CharString>
        <CharString name="Oslashacute">
          -68 callsubr
          133 330 -104 callsubr
        </CharString>
        <CharString name="Otilde">
          -97 callsubr
          55 472 -88 callgsubr
        </CharString>
        <CharString name="P">
          87 316 257 rmoveto
          54 52 14 23 48 hvcurveto
          107 53 141 88 134 vvcurveto
          98 -93 36 -83 vhcurveto
          -262 hlineto
          -15 -78 -24 callgsubr
          113 hlineto
          -118 -505 -15 -65 -13 -25 -55 -41 rlinecurve
          155 19 callsubr
          -154 hlineto
          70 53 9 61 18 78 rrcurveto
          9 9 -1 9 hhcurveto
          293 252 rmoveto
          -106 -58 -79 -112 -45 -84 23 0 vhcurveto
          67 289 rlineto
          21 hlineto
          86 1 125 -16 -112 vvcurveto
          endchar
        </CharString>
        <CharString name="Q">
          346 1070 -50 rmoveto
          -11 -30 -54 -16 -31 hhcurveto
          -119 -91 87 71 -86 hvcurveto
          130 86 137 149 166 vvcurveto
          151 -120 91 -144 -258 -296 -239 -269 -162 120 -74 150 58 57 12 24 53 vhcurveto
          53 -43 54 -44 60 -35 rrcurveto
          -25 41 39 -13 49 hhcurveto
          76 94 46 48 58 hvcurveto
          -255 466 rmoveto
          -181 -130 -191 -196 -153 -116 81 161 195 113 175 213 149 120 -82 -158 vhcurveto
          endchar
        </CharString>
        <CharString name="R">
          -90 callsubr
          endchar
        </CharString>
        <CharString name="Racute">
          -90 callsubr
          154 435 -104 callsubr
        </CharString>
        <CharString name="Rcaron">
          -90 callsubr
          113 398 -100 callgsubr
        </CharString>
        <CharString name="Rcommaaccent">
          -90 callsubr
          -187 -626 -92 callgsubr
        </CharString>
        <CharString name="S">
          -72 callgsubr
          endchar
        </CharString>
        <CharString name="Sacute">
          -72 callgsubr
          -4 256 -104 callsubr
        </CharString>
        <CharString name="Scaron">
          54 662 -81 callsubr
          68 241 -100 callgsubr
        </CharString>
        <CharString name="Scedilla">
          54 664 -75 callsubr
          13 14 1 2 15 vhcurveto
          -66 -47 -82 -62 0 vvcurveto
          0 28 8 19 21 25 -4 -27 -22 -17 -28 -18 -11 vhcurveto
          -23 -14 -24 -12 -20 -14 callsubr
          -26 -2 -6 -8 vhcurveto
          55 47 rlineto
          146 24 201 105 148 -53 callgsubr
          endchar
        </CharString>
        <CharString name="Scircumflex">
          -72 callgsubr
          -45 128 -106 callgsubr
        </CharString>
        <CharString name="T">
          -56 callgsubr
          endchar
        </CharString>
        <CharString name="Tbar">
          -17 callsubr
          -69 -293 rlineto
          -16 20 callgsubr
          49 callsubr
          -37 -160 -13 -57 -16 -25 -47 -35 rlinecurve
          170 -18 callsubr
          22 callgsubr
          35 21 24 66 9 36 20 88 rcurveline
          22 hlineto
          24 -38 callsubr
          -116 hlineto
          68 293 rlineto
          200 hlineto
          25 -44 callgsubr
          endchar
        </CharString>
        <CharString name="Tcaron">
          -56 callgsubr
          -81 218 -100 callgsubr
        </CharString>
        <CharString name="Tcommaaccent">
          -56 callgsubr
          -478 -838 -92 callgsubr
        </CharString>
        <CharString name="Thorn">
          86 285 141 rmoveto
          53 53 13 24 48 hvcurveto
          107 52 141 87 136 vvcurveto
          97 -93 36 -83 vhcurveto
          -150 hlineto
          32 135 -16 -13 -23 -7 -18 -11 rlinecurve
          -18 -10 -18 -13 -18 -12 -16 -69 rcurveline
          -17 hlineto
          -16 -77 -54 -12 -17 hvcurveto
          112 hlineto
          -91 -390 -15 -65 -12 -27 -56 -38 rlinecurve
          155 hlineto
          28 55 60 6 27 hvcurveto
          -154 hlineto
          27 20 22 26 14 31 rrcurveto
          -2 12 11 0 11 hhcurveto
          290 248 rmoveto
          -18 -2 -18 -5 -19 vhcurveto
          -88 -21 -49 -38 -90 hhcurveto
          -42 -48 9 13 -40 hvcurveto
          68 290 rlineto
          21 hlineto
          91 117 -14 -117 hvcurveto
          endchar
        </CharString>
        <CharString name="U">
          -105 callgsubr
          endchar
        </CharString>
        <CharString name="Uacute">
          -105 callgsubr
          -170 178 -104 callsubr
        </CharString>
        <CharString name="Ubreve">
          -105 callgsubr
          -160 218 -96 callsubr
        </CharString>
        <CharString name="Ucircumflex">
          -105 callgsubr
          -177 113 -106 callgsubr
        </CharString>
        <CharString name="Udieresis">
          -105 callgsubr
          -229 183 -86 callsubr
        </CharString>
        <CharString name="Ugrave">
          -105 callgsubr
          -313 49 -96 callgsubr
        </CharString>
        <CharString name="Uhungarumlaut">
          -105 callgsubr
          -90 255 -79 callgsubr
        </CharString>
        <CharString name="Umacron">
          -105 callgsubr
          -483 113 -67 callgsubr
        </CharString>
        <CharString name="Uogonek">
          822 33 callgsubr
          34 23 34 27 25 hvcurveto
          45 -82 callsubr
          -223 hlineto
          -103 callgsubr
          89 hlineto
          -63 -36 -68 -60 -65 -33 callgsubr
        </CharString>
        <CharString name="Uring">
          -105 callgsubr
          -431 28 -63 callsubr
        </CharString>
        <CharString name="Utilde">
          -105 callgsubr
          -112 156 -88 callgsubr
        </CharString>
        <CharString name="V">
          199 293 -29 rmoveto
          27 26 52 13 30 26 34 29 27 38 29 35 rrcurveto
          83 98 255 304 120 vvcurveto
          33 -20 15 -32 -68 -21 -51 -21 -55 vhcurveto
          4 12 12 3 12 hhcurveto
          33 16 -20 -32 -117 -237 -284 -79 -95 hvcurveto
          1 120 6 396 -76 82 rrcurveto
          13 -11 -11 5 -18 hhcurveto
          -53 -83 -56 -31 -43 hvcurveto
          5 24 12 14 27 hhcurveto
          71 14 -104 -52 9 hvcurveto
          19 -116 2 -117 -117 vvcurveto
          -55 -1 -55 1 -56 vhcurveto
          endchar
        </CharString>
        <CharString name="W">
          -99 callgsubr
          endchar
        </CharString>
        <CharString name="Wacute">
          -99 callgsubr
          221 960 -104 callsubr
        </CharString>
        <CharString name="Wcircumflex">
          -99 callgsubr
          221 819 -106 callgsubr
        </CharString>
        <CharString name="Wdieresis">
          -99 callgsubr
          186 884 -86 callsubr
        </CharString>
        <CharString name="Wgrave">
          -99 callgsubr
          44 790 -96 callgsubr
        </CharString>
        <CharString name="X">
          284 751 -27 callsubr
          -27 -54 -57 -9 -29 hvcurveto
          119 hlineto
          -78 -67 -75 -71 -75 -71 -35 72 -37 71 -37 71 rrcurveto
          29 -15 -12 41 -41 hhcurveto
          -51 -87 -55 -32 -42 hvcurveto
          9 18 28 10 20 hhcurveto
          50 19 -61 -36 18 hvcurveto
          35 -68 35 -69 34 -69 -425 -341 rcurveline
          180 hlineto
          23 59 55 12 28 hvcurveto
          -176 hlineto
          319 258 46 -96 45 -97 52 -92 rlinecurve
          -29 17 14 -21 36 hhcurveto
          53 81 55 34 40 hvcurveto
          -7 -15 -38 -17 -15 hhcurveto
          -13 -11 5 7 -11 hvcurveto
          -23 14 -134 280 -22 48 87 74 88 76 84 78 rrcurveto
          62 hlineto
          27 54 57 9 30 hvcurveto
          endchar
        </CharString>
        <CharString name="Y">
          -94 callgsubr
          endchar
        </CharString>
        <CharString name="Yacute">
          -94 callgsubr
          301 577 -104 callsubr
        </CharString>
        <CharString name="Ycircumflex">
          -94 callgsubr
          231 494 -106 callgsubr
        </CharString>
        <CharString name="Ydieresis">
          -94 callgsubr
          214 566 -86 callsubr
        </CharString>
        <CharString name="Ygrave">
          -94 callgsubr
          131 454 -96 callgsubr
        </CharString>
        <CharString name="Z">
          -77 callsubr
          endchar
        </CharString>
        <CharString name="Zacute">
          -77 callsubr
          39 259 -104 callsubr
        </CharString>
        <CharString name="Zcaron">
          96 718 -87 callsubr
          31 234 -100 callgsubr
        </CharString>
        <CharString name="Zdotaccent">
          -77 callsubr
          -180 187 -78 callgsubr
        </CharString>
        <CharString name="a">
          -101 callsubr
          endchar
        </CharString>
        <CharString name="aacute">
          -101 callsubr
          166 380 -104 callsubr
        </CharString>
        <CharString name="abreve">
          -101 callsubr
          201 360 -96 callsubr
        </CharString>
        <CharString name="acircumflex">
          -101 callsubr
          156 248 -106 callgsubr
        </CharString>
        <CharString name="acute">
          -226 287 832 -104 callsubr
        </CharString>
        <CharString name="adieresis">
          -101 callsubr
          115 326 -86 callsubr
        </CharString>
        <CharString name="ae">
          -68 callgsubr
          endchar
        </CharString>
        <CharString name="aeacute">
          -68 callgsubr
          438 550 -104 callsubr
        </CharString>
        <CharString name="agrave">
          -101 callsubr
          23 251 -96 callgsubr
        </CharString>
        <CharString name="amacron">
          -101 callsubr
          -116 237 -67 callgsubr
        </CharString>
        <CharString name="ampersand">
          541 1180 551 rmoveto
          -5 -25 -25 -2 -25 -69 -67 17 -69 hhcurveto
          -89 -51 -38 -48 -70 hvcurveto
          15 32 35 5 35 hhcurveto
          19 18 -1 -3 19 hvcurveto
          3 -14 1 -14 -14 vvcurveto
          -88 -52 -82 -57 -63 vhcurveto
          -62 72 -67 86 -90 40 rrcurveto
          74 41 97 71 94 vvcurveto
          65 -56 33 -60 -100 -225 -148 -113 -49 35 -26 44 -11 vhcurveto
          -95 -48 -154 -78 -124 vvcurveto
          -100 116 -32 82 131 132 67 69 109 vhcurveto
          -51 44 46 -80 76 hhcurveto
          77 69 48 42 61 hvcurveto
          -15 -31 -34 -7 -35 hhcurveto
          -52 -25 30 36 -32 hvcurveto
          -20 23 -19 22 -19 23 88 67 94 103 17 113 rrcurveto
          -1 13 12 0 13 hhcurveto
          61 18 3 34 50 hvcurveto
          15 10 24 21 15 5 rrcurveto
          -598 5 rmoveto
          -46 -28 -79 -51 -9 vhcurveto
          -52 17 -88 6 74 vvcurveto
          53 31 40 37 35 vhcurveto
          3 14 14 2 15 hhcurveto
          61 47 -32 -64 hvcurveto
          67 -425 rmoveto
          -47 -68 -114 -28 -82 hhcurveto
          -83 -106 38 98 126 95 16 99 22 hvcurveto
          113 -38 73 -100 73 -87 rrcurveto
          endchar
        </CharString>
        <CharString name="aogonek">
          31 559 -10 callsubr
          32 20 31 24 25 hvcurveto
          43 9 41 34 35 24 rrcurveto
          -60 callsubr
          75 321 rlineto
          -80 callsubr
          -25 15 -8 20 -2 vhcurveto
          -60 -37 -58 -56 -61 -49 callgsubr
          -176 230 -73 callgsubr
          endchar
        </CharString>
        <CharString name="approxequal">
          65 623 448 42 callsubr
          0 -3 -60 -10 68 -50 hhcurveto
          -71 -133 -104 -55 -42 hvcurveto
          16 19 69 17 25 30 7 8 7 10 8 8 rrcurveto
          2 2 0 2 54 11 -68 53 hhcurveto
          66 117 89 47 47 hvcurveto
          -49 -209 rmoveto
          -28 -27 -49 -6 -36 -35 rrcurveto
          -1 -2 -2 0 -2 -61 -9 69 -51 hhcurveto
          -70 -134 -105 -55 -42 hvcurveto
          17 19 68 17 26 30 7 9 7 9 7 8 rrcurveto
          3 2 0 2 53 12 -67 52 hhcurveto
          67 116 89 46 47 hvcurveto
          endchar
        </CharString>
        <CharString name="aring">
          -101 callsubr
          -89 172 -63 callsubr
        </CharString>
        <CharString name="asciicircum">
          -173 293 687 rmoveto
          -18 -10 -86 -46 -6 -10 -183 -261 rcurveline
          17 20 75 20 18 27 86 121 rcurveline
          33 -188 12 14 101 39 -2 14 rlinecurve
          endchar
        </CharString>
        <CharString name="asciitilde">
          18 604 433 42 callsubr
          -1 -2 -61 -9 69 -51 hhcurveto
          -71 -133 -104 -56 -42 hvcurveto
          17 19 68 18 26 29 7 9 7 9 7 8 rrcurveto
          1 2 2 0 2 54 12 -68 52 hhcurveto
          67 116 89 47 47 hvcurveto
          endchar
        </CharString>
        <CharString name="asterisk">
          -28 389 477 rmoveto
          27 3 158 36 21 vvcurveto
          14 -31 64 -14 -4 -1 -1 -3 -3 vhcurveto
          -36 -39 -47 -31 -46 -27 rrcurveto
          18 32 52 119 33 vvcurveto
          8 -10 -1 -6 -14 -86 -14 -14 -5 3 -5 1 -5 vhcurveto
          7 -28 1 -31 -29 vvcurveto
          -23 -1 -24 -3 -23 vhcurveto
          -32 26 -40 40 -18 38 rrcurveto
          2 -1 0 2 -4 hhcurveto
          -12 -68 -68 -11 -20 116 -32 21 -4 hvcurveto
          -23 -12 -144 -82 -18 vvcurveto
          -18 61 -41 18 3 2 3 2 1 vhcurveto
          31 57 46 53 46 45 rrcurveto
          -26 46 -152 22 14 74 74 13 5 -13 4 -4 1 vhcurveto
          -34 16 -49 47 -24 29 rrcurveto
          endchar
        </CharString>
        <CharString name="at">
          228 471 32 rmoveto
          130 159 203 116 28 hvcurveto
          4 20 3 20 20 vvcurveto
          87 -47 63 -91 -128 -210 -116 -85 -94 vhcurveto
          -83 -74 -70 -118 -114 vvcurveto
          -95 48 -81 104 53 callgsubr
          vhcurveto
          -103 3 -47 72 97 vvcurveto
          178 168 197 184 89 61 -54 -91 -83 -55 -101 -52 -63 vhcurveto
          -3 hlineto
          -16 -1 -11 8 17 vvcurveto
          53 88 166 25 59 vhcurveto
          -11 -11 -41 -17 -16 -10 rrcurveto
          17 -13 -18 6 -21 hhcurveto
          -120 -181 -145 -126 -52 36 -22 49 41 45 26 22 34 hvcurveto
          -3 -9 -2 -10 -9 vvcurveto
          -20 11 -9 19 vhcurveto
          28 217 rmoveto
          -16 -3 -15 -3 -15 vhcurveto
          -17 -5 -31 -78 -20 hhcurveto
          -48 -36 20 53 48 32 89 56 42 16 -32 -37 hvcurveto
          endchar
        </CharString>
        <CharString name="atilde">
          -101 callsubr
          202 308 -88 callgsubr
        </CharString>
        <CharString name="b">
          37 237 -16 rmoveto
          160 194 190 165 82 -40 58 -88 -70 -74 -44 -41 -55 hvcurveto
          102 439 -68 -31 -78 -50 -62 -41 rlinecurve
          3 13 15 4 14 hhcurveto
          24 8 -13 -22 -17 -4 -18 -4 -16 hvcurveto
          -113 -484 rlineto
          -3 -13 -1 -13 -13 vvcurveto
          -76 55 -49 75 vhcurveto
          245 291 rmoveto
          -99 -43 -130 -119 -59 -53 32 64 10 1 10 3 9 vhcurveto
          28 121 rlineto
          53 12 48 69 61 hhcurveto
          85 36 -60 -79 hvcurveto
          endchar
        </CharString>
        <CharString name="backslash">
          -35 464 66 rmoveto
          -13 38 -14 37 -12 38 -54 169 -33 178 -16 177 -37 -21 -35 -25 -38 -21 20 -218 45 -212 77 -206 28 11 54 37 28 18 rrcurveto
          endchar
        </CharString>
        <CharString name="bar">
          -252 377 830 rmoveto
          -3 -4 -45 -21 -9 -6 -18 -10 -18 -13 -17 -12 -214 -916 rcurveline
          7 8 100 43 4 15 213 916 rcurveline
          endchar
        </CharString>
        <CharString name="braceleft">
          -90 640 832 rmoveto
          1 -8 -7 0 -8 hhcurveto
          -120 -126 -82 -89 -75 hvcurveto
          -47 -57 0 -68 -16 -67 -7 -33 -16 -46 -26 -22 -4 -4 -8 -4 -5 -3 -26 -17 -29 -24 -29 -10 rrcurveto
          43 -21 37 -28 -52 -69 -59 -61 -79 vvcurveto
          -90 69 -60 87 12 13 1 3 12 vhcurveto
          21 4 68 47 22 15 rrcurveto
          -2 -13 -13 -1 -13 hhcurveto
          -89 -64 62 89 hvcurveto
          81 57 66 63 vvcurveto
          45 -31 27 -36 20 vhcurveto
          74 46 44 38 20 88 24 100 -9 45 78 78 rrcurveto
          5 17 17 1 17 13 15 -2 13 hhcurveto
          51 callsubr
        </CharString>
        <CharString name="braceright">
          -91 509 373 rmoveto
          -43 21 -36 28 52 69 58 61 79 vvcurveto
          90 -69 60 -87 -12 -13 -1 -2 -12 vhcurveto
          -21 -5 -67 -47 -22 -15 rrcurveto
          2 12 13 2 13 hhcurveto
          89 64 -62 -90 hvcurveto
          -80 -57 -67 -63 vvcurveto
          -45 32 -27 36 -20 vhcurveto
          -75 -46 -43 -38 -21 -88 -23 -99 8 -45 -78 -79 rrcurveto
          -4 -16 -17 -2 -18 -13 -14 3 -14 hhcurveto
          -24 -68 -64 -3 -18 hvcurveto
          -1 7 8 0 8 hhcurveto
          146 182 124 144 37 hvcurveto
          8 31 3 33 7 31 18 78 57 60 75 25 rrcurveto
          endchar
        </CharString>
        <CharString name="bracketleft">
          -167 379 830 rmoveto
          -14 -93 -54 -12 -3 hvcurveto
          -183 -786 -11 -50 -16 -47 -42 -33 rlinecurve
          204 hlineto
          15 77 54 12 19 hvcurveto
          -202 hlineto
          25 18 23 32 7 29 179 771 rcurveline
          80 -8 callsubr
        </CharString>
        <CharString name="bracketright">
          -166 295 830 rmoveto
          -15 -77 -54 1 callsubr
          199 hlineto
          -16 -18 -31 -38 -5 -23 -180 -771 rcurveline
          -79 hlineto
          -25 -66 -63 -3 -20 hvcurveto
          175 hlineto
          14 94 54 12 3 hvcurveto
          183 790 12 53 20 34 37 39 rlinecurve
          endchar
        </CharString>
        <CharString name="breve">
          -123 390 794 -96 callsubr
        </CharString>
        <CharString name="brokenbar">
          -246 379 830 rmoveto
          -16 -16 -91 -34 -3 -16 -90 -386 rcurveline
          14 16 92 34 4 17 rrcurveto
          -34 -146 rmoveto
          -15 -16 -91 -33 -4 -17 -90 -385 rcurveline
          15 15 92 34 4 17 rrcurveto
          endchar
        </CharString>
        <CharString name="bullet">
          -121 349 477 rmoveto
          -183 -110 53 -135 183 110 rlineto
          endchar
        </CharString>
        <CharString name="c">
          -83 callsubr
          endchar
        </CharString>
        <CharString name="cacute">
          -83 callsubr
          164 337 -104 callsubr
        </CharString>
        <CharString name="caron">
          -175 336 793 -102 callsubr
          149 116 rlineto
          endchar
        </CharString>
        <CharString name="ccaron">
          -83 callsubr
          142 304 -100 callgsubr
        </CharString>
        <CharString name="ccedilla">
          -67 callsubr
          -91 56 -51 88 -2 hvcurveto
          -66 -47 -83 -63 -4 callsubr
          -17 -28 -19 -15 callgsubr
          -25 -2 -6 -8 vhcurveto
          53 45 79 3 91 43 58 50 rlinecurve
          -59 callgsubr
          endchar
        </CharString>
        <CharString name="ccircumflex">
          -83 callsubr
          136 209 -106 callgsubr
        </CharString>
        <CharString name="cdotaccent">
          -83 callsubr
          -25 277 -78 callgsubr
        </CharString>
        <CharString name="cedilla">
          -280 233 43 rmoveto
          -27 -13 -196 -148 -16 callsubr
          114 96 rlineto
          endchar
        </CharString>
        <CharString name="cent">
          -55 536 479 rmoveto
          18 -76 10 -15 -8 -9 0 -1 -8 vhcurveto
          27 115 -14 -15 -93 -35 -4 -16 rlinecurve
          -19 -85 rlineto
          -96 -53 -118 -74 -125 vvcurveto
          -68 43 -58 71 1 vhcurveto
          12 1 -5 -12 -2 -18 -3 -12 rlinecurve
          -6 -26 -5 -26 -7 -25 8 7 37 16 12 7 18 11 18 13 18 12 17 75 rcurveline
          26 10 84 46 18 17 rrcurveto
          1 vlineto
          -10 -1 -12 -7 -10 -3 rrcurveto
          -9 -25 -28 -8 -27 hhcurveto
          -75 -59 46 78 51 38 103 63 16 95 -11 -17 -3 -6 -5 -3 -2 hvcurveto
          23 1 99 64 12 vvcurveto
          endchar
        </CharString>
        <CharString name="circumflex">
          -175 340 679 -106 callgsubr
        </CharString>
        <CharString name="colon">
          -247 26 callsubr
          -105 -231 rmoveto
          -16 callgsubr
          38 callgsubr
        </CharString>
        <CharString name="comma">
          -283 -45 callsubr
          endchar
        </CharString>
        <CharString name="copyright">
          28 callgsubr
          135 -109 83 -128 -222 -285 -212 -235 -144 111 -68 133 hvcurveto
          390 378 rmoveto
          -156 -112 -157 -167 -132 -112 74 141 166 102 145 178 128 115 -76 -137 vhcurveto
          -57 124 rmoveto
          15 -8 -58 1 -15 hhcurveto
          -122 -218 -127 -139 -67 47 -40 66 110 39 32 63 85 hvcurveto
          -17 -35 -40 -10 -38 hhcurveto
          -65 -60 36 70 72 44 61 76 12 66 -3 -13 -2 -7 -6 -1 -1 hvcurveto
          21 8 85 51 16 16 rrcurveto
          endchar
        </CharString>
        <CharString name="currency">
          8 521 552 rmoveto
          -19 -6 -60 -37 -18 -12 rrcurveto
          21 -21 -30 10 -30 hhcurveto
          -41 -38 -18 -18 -35 hvcurveto
          -17 21 -17 21 -16 21 -13 -4 -80 -52 -17 -11 53 -67 rcurveline
          1 hlineto
          -37 -30 -27 -47 -48 vvcurveto
          -23 6 -32 16 -17 vhcurveto
          -81 -68 20 6 54 36 20 13 rlinecurve
          -17 23 28 -7 28 hhcurveto
          37 31 13 15 32 hvcurveto
          17 -20 16 -21 16 -20 14 2 78 53 18 12 -51 65 rcurveline
          37 33 37 46 52 vvcurveto
          23 -6 23 -13 19 vhcurveto
          58 48 8 7 11 7 8 8 rlinecurve
          -176 -197 rmoveto
          -37 -18 -68 -46 -66 -46 39 67 39 15 68 49 64 48 -43 -65 vhcurveto
          endchar
        </CharString>
        <CharString name="d">
          60 -57 callsubr
          endchar
        </CharString>
        <CharString name="dagger">
          -42 425 560 rmoveto
          63 270 -7 9 callgsubr
          -18 hvcurveto
          164 hlineto
          -150 -646 12 14 94 35 4 17 rlinecurve
          135 580 rlineto
          55 hlineto
          24 69 64 2 18 hvcurveto
          endchar
        </CharString>
        <CharString name="daggerdbl">
          -35 433 560 rmoveto
          63 270 -8 9 callgsubr
          -17 hvcurveto
          163 hlineto
          -63 -272 rlineto
          -69 -35 callsubr
          164 hlineto
          -72 -308 13 14 94 35 4 17 rlinecurve
          56 242 rlineto
          55 55 callsubr
          64 2 18 hvcurveto
          -150 hlineto
          63 272 rlineto
          56 -8 callsubr
        </CharString>
        <CharString name="dcaron">
          172 -57 callsubr
          357 406 -74 callgsubr
          endchar
        </CharString>
        <CharString name="dcroat">
          60 -31 callsubr
          -4 -18 rlineto
          -25 20 callgsubr
          120 hlineto
          -18 -76 -56 callsubr
          98 422 rlineto
          31 -18 callgsubr
          -125 hlineto
          -215 -517 -21 callgsubr
          endchar
        </CharString>
        <CharString name="degree">
          -181 237 456 rmoveto
          45 72 48 26 36 hvcurveto
          30 21 28 31 38 vvcurveto
          37 -29 26 -37 -44 -74 -50 -25 -36 vhcurveto
          -31 -22 -29 -32 -40 vvcurveto
          -38 34 -20 35 vhcurveto
          101 98 rmoveto
          -12 -3 -10 -4 -11 vhcurveto
          -33 5 -18 27 32 vvcurveto
          11 2 11 4 10 vhcurveto
          32 -5 20 -27 -31 vvcurveto
          endchar
        </CharString>
        <CharString name="dieresis">
          -122 333 743 -86 callsubr
        </CharString>
        <CharString name="divide">
          4 402 488 43 callgsubr
          -227 -107 rmoveto
          -25 -62 -61 -5 -23 hvcurveto
          352 hlineto
          25 63 61 5 23 hvcurveto
          -226 -99 rmoveto
          -110 -67 32 -81 111 66 rlineto
          endchar
        </CharString>
        <CharString name="dollar">
          12 489 483 rmoveto
          15 14 22 7 19 10 rrcurveto
          21 10 55 35 25 vvcurveto
          31 -103 13 -23 vhcurveto
          -9 -9 0 -9 hhcurveto
          28 117 -19 -16 -88 -34 -4 -16 rlinecurve
          -19 -82 rlineto
          -64 -32 -126 -76 -80 -115 260 42 -109 vvcurveto
          -71 -54 -21 -62 -28 -112 5 40 11 10 12 9 6 vhcurveto
          -28 -21 -100 -36 -38 vvcurveto
          -37 96 -10 27 vhcurveto
          49 hlineto
          -27 -116 16 13 21 7 19 10 rlinecurve
          19 11 17 13 18 12 19 82 rcurveline
          65 28 135 82 81 125 -257 -57 120 vvcurveto
          61 42 23 56 24 100 -13 -31 -11 -13 -16 -8 -8 vhcurveto
          endchar
        </CharString>
        <CharString name="dotaccent">
          -345 110 743 -78 callgsubr
        </CharString>
        <CharString name="dotlessi">
          -89 callgsubr
          80 345 rlineto
          endchar
        </CharString>
        <CharString name="dotlessj">
          -244 307 491 -78 callsubr
          71 304 rcurveline
          endchar
        </CharString>
        <CharString name="e">
          -93 callgsubr
          endchar
        </CharString>
        <CharString name="eacute">
          -90 183 -95 callsubr
          150 325 -104 callsubr
        </CharString>
        <CharString name="ebreve">
          -93 callgsubr
          198 333 -96 callsubr
        </CharString>
        <CharString name="ecaron">
          -93 callgsubr
          168 301 -100 callgsubr
        </CharString>
        <CharString name="ecircumflex">
          -93 callgsubr
          198 225 -106 callgsubr
        </CharString>
        <CharString name="edieresis">
          -93 callgsubr
          139 305 -86 callsubr
        </CharString>
        <CharString name="edotaccent">
          -93 callgsubr
          12 294 -78 callgsubr
        </CharString>
        <CharString name="egrave">
          -93 callgsubr
          55 238 -96 callgsubr
        </CharString>
        <CharString name="eight">
          78 477 376 rmoveto
          69 47 122 102 91 vvcurveto
          66 -59 35 -60 -117 -224 -145 -128 -46 31 -26 37 -19 vhcurveto
          -84 -51 -97 -77 -109 vvcurveto
          -86 64 -48 82 122 239 121 129 70 -70 45 -55 29 vhcurveto
          83 175 rmoveto
          -61 -52 -69 -43 -39 vhcurveto
          -58 29 -85 40 75 vvcurveto
          68 42 56 72 60 64 -31 -68 vhcurveto
          -71 -384 rmoveto
          -83 -53 -36 -78 -81 -71 44 88 62 36 67 47 38 vhcurveto
          77 -36 123 -42 -102 vvcurveto
          endchar
        </CharString>
        <CharString name="ellipsis">
          161 27 callgsubr
          192 81 rmoveto
          -16 callgsubr
          -51 callsubr
          193 81 rmoveto
          -111 -66 33 -82 38 callgsubr
        </CharString>
        <CharString name="emacron">
          -93 callgsubr
          -116 239 -67 callgsubr
        </CharString>
        <CharString name="emdash">
          8 -3 callgsubr
          296 -18 callsubr
          endchar
        </CharString>
        <CharString name="endash">
          5 callsubr
        </CharString>
        <CharString name="eng">
          53 162 -378 rmoveto
          159 124 228 135 32 hvcurveto
          84 362 rlineto
          3 14 2 14 15 vvcurveto
          55 -33 23 -53 -60 -85 -44 -35 -46 vhcurveto
          3 15 4 16 16 vvcurveto
          27 -15 -27 callgsubr
          -14 -27 -37 -39 -14 rrcurveto
          5 14 14 -5 callsubr
          29 14 -14 -29 -18 -5 -18 -4 -17 hvcurveto
          -64 -277 rlineto
          -39 callgsubr
          30 vhcurveto
          -3 -7 -8 -2 -8 hhcurveto
          -18 -9 20 callsubr
          1 5 hvcurveto
          34 146 rlineto
          52 12 32 101 67 hhcurveto
          53 35 -18 -57 -25 -5 -26 -6 -24 hvcurveto
          -78 -333 -19 -83 -26 -81 -53 -67 rlinecurve
          -11 -1 -14 6 14 vvcurveto
          10 8 10 9 6 vhcurveto
          -25 -19 -27 -14 -27 -14 -18 -10 -23 -9 -7 -21 rrcurveto
          -2 0 -1 -2 vvcurveto
          -14 17 -5 12 vhcurveto
          endchar
        </CharString>
        <CharString name="eogonek">
          -89 364 33 callgsubr
          33 22 33 26 26 hvcurveto
          67 12 70 35 47 44 rrcurveto
          -47 callsubr
          -74 callsubr
          5 6 0 1 5 vhcurveto
          -60 -37 -59 -57 -61 -49 callgsubr
          -11 478 -69 callsubr
          endchar
        </CharString>
        <CharString name="equal">
          84 264 368 rmoveto
          -24 -67 -63 -4 -19 hvcurveto
          343 0 callsubr
          -374 -135 rmoveto
          -25 -67 -64 -2 -18 hvcurveto
          342 hlineto
          25 67 62 -10 callgsubr
          endchar
        </CharString>
        <CharString name="eth">
          41 555 644 rmoveto
          -24 56 -35 48 -47 40 rrcurveto
          4 -5 -16 15 -6 -20 -74 -67 -11 hhcurveto
          -2 hlineto
          37 -27 31 -32 26 -37 rrcurveto
          -13 hlineto
          -51 callgsubr
          158 hlineto
          15 -36 10 -39 6 -38 rrcurveto
          5 -16 -16 2 -16 hhcurveto
          -146 -204 -174 -153 -87 58 -68 90 131 180 147 129 30 hvcurveto
          15 62 9 63 63 vvcurveto
          42 -4 42 -10 40 vhcurveto
          10 hlineto
          29 52 59 8 30 hvcurveto
          -235 -394 rmoveto
          -71 -40 -125 -88 -94 -52 67 90 71 40 124 87 93 54 -66 -90 vhcurveto
          endchar
        </CharString>
        <CharString name="exclam">
          -244 139 165 rmoveto
          16 15 58 18 8 13 3 5 42 152 4 14 54 189 rcurveline
          9 33 12 33 7 33 rrcurveto
          2 8 2 9 9 vvcurveto
          9 -2 10 -12 -25 -97 -65 -15 -20 vhcurveto
          -2 -6 rlineto
          4 6 25 19 6 hhcurveto
          9 2 -6 -7 -5 0 -5 -1 -4 hvcurveto
          -35 -153 -35 -154 -36 -153 rrcurveto
          52 -32 43 callgsubr
          endchar
        </CharString>
        <CharString name="exclamdown">
          -244 330 715 rmoveto
          -17 callgsubr
          32 -81 110 66 rlineto
          -58 -98 rmoveto
          -15 -15 -59 -18 -8 -13 -3 -5 -42 -152 -4 -14 -54 -190 rcurveline
          -9 -32 -11 -33 -8 -33 rrcurveto
          -2 -8 -2 -9 -9 vvcurveto
          -8 3 -12 11 25 97 65 16 21 vhcurveto
          1 6 rlineto
          -4 -6 -26 -19 -5 hhcurveto
          -8 -3 6 7 44 callgsubr
          34 153 36 154 35 153 rrcurveto
          endchar
        </CharString>
        <CharString name="f">
          -159 671 798 rmoveto
          23 -76 15 -18 53 callsubr
          vhcurveto
          -46 callgsubr
          17 78 -18 -20 -3 -11 -9 -3 -3 hvcurveto
          20 2 104 62 17 vvcurveto
          endchar
        </CharString>
        <CharString name="fi">
          124 705 742 rmoveto
          23 -4 -26 71 -98 hhcurveto
          53 callsubr
          hvcurveto
          -46 callgsubr
          134 -4 -84 -20 -3 -11 -10 -2 -2 hvcurveto
          20 2 107 62 -3 17 rrcurveto
          -51 -241 rmoveto
          -24 callsubr
          rrcurveto
          3 14 16 3 14 hhcurveto
          23 8 -14 -21 -14 -2 -13 -4 -54 callgsubr
          -37 21 -7 33 52 47 41 28 42 55 callgsubr
          -11 -55 callgsubr
          endchar
        </CharString>
        <CharString name="five">
          32 304 532 rmoveto
          -110 -67 -25 -99 -26 -103 -46 -92 rlinecurve
          15 58 59 22 61 hhcurveto
          84 58 -38 -89 -84 -41 -68 -76 -36 hvcurveto
          -6 -14 -16 -6 -16 hhcurveto
          -27 -110 15 36 16 23 21 12 10 hvcurveto
          -33 -27 -42 -10 -32 -26 -14 -11 -21 -21 -5 -17 rrcurveto
          -1 0 -2 -1 -31 110 -18 24 154 236 161 171 90 -64 35 -82 -49 -78 -6 -20 -44 hvcurveto
          32 71 24 73 21 75 rrcurveto
          254 hlineto
          15 77 55 12 18 hvcurveto
          endchar
        </CharString>
        <CharString name="fl">
          116 726 825 rmoveto
          -19 -8 -18 -8 -18 -9 rrcurveto
          22 -4 -72 14 -18 hhcurveto
          53 callsubr
          hvcurveto
          -168 -97 -17 -44 -42 -182 -73 -49 rcurveline
          61 hlineto
          -94 -407 -20 -86 -25 -84 -57 -69 rlinecurve
          -1 hlineto
          -11 -1 -14 25 callsubr
          8 10 9 5 vhcurveto
          -29 -20 -97 -37 -46 callsubr
          14 60 -13 -16 16 hvcurveto
          -35 -21 rlineto
          1 7 8 1 7 hhcurveto
          22 26 -14 -37 -15 -3 -15 -4 -15 hvcurveto
          -121 -522 rlineto
          -5 -21 -5 -22 -21 vvcurveto
          -30 11 -20 32 58 46 40 31 46 vhcurveto
          -2 -11 -10 -1 -11 -12 callgsubr
          5 18 hvcurveto
          157 674 rlineto
          endchar
        </CharString>
        <CharString name="four">
          146 726 278 rmoveto
          -31 -39 -64 -13 -50 hhcurveto
          -39 hlineto
          109 470 -26 -16 -23 -14 -44 -18 -17 -19 rlinecurve
          -29 -32 -25 -36 -27 -32 -52 -60 -59 -54 -58 -52 rrcurveto
          -78 -70 -161 -134 0 vvcurveto
          379 hlineto
          0 -11 -53 -8 -26 vhcurveto
          -12 -46 -14 -22 -45 -20 rrcurveto
          161 19 callsubr
          -159 hlineto
          38 28 27 32 10 47 74 13 74 46 58 46 rrcurveto
          -287 -44 rmoveto
          -283 hlineto
          128 91 122 104 105 115 rrcurveto
          endchar
        </CharString>
        <CharString name="fraction">
          -31 685 799 46 callsubr
          -3 -10 -2 5 callgsubr
          40 11 34 26 49 39 46 49 42 15 callgsubr
          endchar
        </CharString>
        <CharString name="g">
          -97 callgsubr
          endchar
        </CharString>
        <CharString name="gbreve">
          -97 callgsubr
          195 846 -96 callsubr
        </CharString>
        <CharString name="gcircumflex">
          -97 callgsubr
          169 760 -106 callgsubr
        </CharString>
        <CharString name="gcommaaccent">
          -97 callgsubr
          49 809 -19 callgsubr
        </CharString>
        <CharString name="gdotaccent">
          -97 callgsubr
          18 809 -78 callgsubr
        </CharString>
        <CharString name="germandbls">
          112 707 698 rmoveto
          81 -45 57 -84 -51 -49 -22 -24 -43 vhcurveto
          -166 -96 -19 -45 -42 -182 -24 -16 -25 -16 -24 -17 rrcurveto
          61 hlineto
          -97 -407 -20 -84 -27 -88 -55 -67 rlinecurve
          -1 hlineto
          -11 -1 -14 -9 callsubr
          -19 -99 -40 -35 8 callsubr
          137 141 187 127 30 vhcurveto
          127 537 18 73 19 78 54 56 rlinecurve
          5 17 18 1 18 hhcurveto
          68 69 -52 -72 hvcurveto
          -186 -251 -68 -101 -94 194 26 -98 vvcurveto
          -42 -23 -27 -44 -22 -80 5 33 10 7 9 8 7 vhcurveto
          -28 -22 -95 -31 -39 21 callgsubr
          97 200 95 114 vhcurveto
          106 -197 -37 92 103 246 26 211 vvcurveto
          endchar
        </CharString>
        <CharString name="grave">
          -292 221 679 -96 callgsubr
        </CharString>
        <CharString name="greater">
          -55 500 293 rmoveto
          -80 68 -62 88 -85 62 rrcurveto
          0 -1 1 -1 -4 -85 -59 -8 -19 vhcurveto
          63 -79 78 -66 77 -66 -111 -61 -129 -74 -81 -99 28 27 49 6 33 33 14 14 13 15 14 13 58 52 56 31 67 37 11 5 11 10 11 7 24 15 25 16 26 12 rrcurveto
          endchar
        </CharString>
        <CharString name="guillemotleft">
          98 651 412 rmoveto
          9 callsubr
          -34 -20 -34 24 callsubr
          21 13 72 -4 callgsubr
          -244 hmoveto
          -23 callgsubr
        </CharString>
        <CharString name="guillemotright">
          95 643 270 rmoveto
          -52 43 -48 50 -47 49 -20 -14 -74 -19 callsubr
          30 35 32 42 23 34 20 34 22 34 21 rrcurveto
          -244 hmoveto
          -5 callgsubr
          30 34 32 40 callsubr
        </CharString>
        <CharString name="guilsinglleft">
          -146 407 412 rmoveto
          -23 callgsubr
        </CharString>
        <CharString name="guilsinglright">
          -149 399 270 rmoveto
          -5 callgsubr
          31 34 31 40 callsubr
        </CharString>
        <CharString name="h">
          -65 callsubr
          endchar
        </CharString>
        <CharString name="hbar">
          -42 callsubr
          29 124 rlineto
          5 -18 callgsubr
          -100 hlineto
          60 257 -22 callsubr
          -15 -65 rlineto
          -3 hlineto
          -25 -67 -63 -3 -18 hvcurveto
          98 hlineto
          -99 -427 -64 callgsubr
          endchar
        </CharString>
        <CharString name="hcircumflex">
          -65 callsubr
          21 497 rmoveto
          -20 27 -17 28 -21 27 rrcurveto
          0 -6 8 0 -8 -65 -43 -8 -10 vhcurveto
          -116 -90 17 14 22 11 20 11 rlinecurve
          8 5 9 3 7 5 38 30 rcurveline
          16 -24 17 -24 17 -23 rrcurveto
          -1 1 6 -8 1 hhcurveto
          8 64 43 9 12 hvcurveto
          endchar
        </CharString>
        <CharString name="hungarumlaut">
          -94 419 832 -79 callgsubr
        </CharString>
        <CharString name="hyphen">
          65 -3 callgsubr
          353 -8 callsubr
        </CharString>
        <CharString name="i">
          -225 -45 callgsubr
          endchar
        </CharString>
        <CharString name="iacute">
          -222 310 -91 callgsubr
          230 551 -104 callsubr
        </CharString>
        <CharString name="ibreve">
          -89 callgsubr
          244 558 -96 callsubr
        </CharString>
        <CharString name="icircumflex">
          -89 callgsubr
          213 451 -106 callgsubr
        </CharString>
        <CharString name="idieresis">
          -89 callgsubr
          180 525 -86 callsubr
        </CharString>
        <CharString name="igrave">
          -89 callgsubr
          85 434 -96 callgsubr
        </CharString>
        <CharString name="ij">
          44 -45 callgsubr
          332 616 -50 callsubr
        </CharString>
        <CharString name="imacron">
          -89 callgsubr
          -71 457 -67 callgsubr
        </CharString>
        <CharString name="infinity">
          280 583 192 rmoveto
          104 162 127 113 53 -24 54 -60 -71 -109 -72 -43 -54 hvcurveto
          46 -27 -55 65 -59 hhcurveto
          -101 -163 -132 -109 -64 44 -39 63 70 94 58 43 53 hvcurveto
          -52 27 42 -48 64 hhcurveto
          157 178 rmoveto
          -38 -14 -43 -24 -30 vhcurveto
          -1 -5 -6 0 -5 hhcurveto
          -75 -43 77 61 -25 hvcurveto
          32 24 37 44 44 hhcurveto
          60 32 -45 -57 hvcurveto
          -307 -40 rmoveto
          -23 -12 -38 -51 -29 hhcurveto
          -64 -53 37 68 39 16 39 23 31 hvcurveto
          61 -2 61 -63 25 -51 4 -8 3 -9 3 -7 rrcurveto
          endchar
        </CharString>
        <CharString name="iogonek">
          -225 319 -124 rmoveto
          -12 -29 -39 37 callsubr
          33 22 31 24 26 hvcurveto
          39 11 35 30 33 22 rrcurveto
          -64 callsubr
          80 345 -24 callsubr
          rlinecurve
          -79 callsubr
          -35 19 -8 30 -1 vhcurveto
          -58 -37 -57 -55 -60 vvcurveto
          -38 26 -31 39 30 29 14 13 25 vhcurveto
          19 10 101 58 7 11 rrcurveto
          -48 886 -15 callsubr
          endchar
        </CharString>
        <CharString name="itilde">
          -89 callgsubr
          296 498 -88 callgsubr
        </CharString>
        <CharString name="j">
          -244 271 762 -50 callsubr
        </CharString>
        <CharString name="jcircumflex">
          -244 307 491 -78 callsubr
          rrcurveto
          207 395 -106 callgsubr
        </CharString>
        <CharString name="k">
          -63 callgsubr
          endchar
        </CharString>
        <CharString name="kcommaaccent">
          -63 callgsubr
          -82 -470 -92 callgsubr
        </CharString>
        <CharString name="kgreenlandic">
          -37 callgsubr
          24 98 -73 -33 -68 -46 -68 -43 rlinecurve
          3 15 14 50 callsubr
          -2 -12 -3 -12 hvcurveto
          -57 -243 -66 callsubr
          endchar
        </CharString>
        <CharString name="l">
          -238 -84 callgsubr
          157 674 rlineto
          endchar
        </CharString>
        <CharString name="lacute">
          -238 -84 callgsubr
          256 855 -104 callsubr
        </CharString>
        <CharString name="lcaron">
          -126 -84 callgsubr
          303 603 -74 callgsubr
          endchar
        </CharString>
        <CharString name="lcommaaccent">
          -238 -84 callgsubr
          -22 -286 -92 callgsubr
        </CharString>
        <CharString name="ldotaccent">
          -67 -84 callgsubr
          257 275 rmoveto
          -16 callgsubr
          38 callgsubr
        </CharString>
        <CharString name="less">
          -56 528 511 rmoveto
          -28 -27 -48 -6 -34 -33 -14 -14 -13 -14 -15 -14 -57 -52 -56 -31 -67 -36 -11 -6 -11 -9 -11 -7 -24 -16 -25 -17 -26 -11 79 -68 62 -88 85 -62 rrcurveto
          1 1 0 0 hvcurveto
          5 85 59 7 19 hvcurveto
          -63 80 -78 65 -77 66 111 61 129 74 81 99 rrcurveto
          endchar
        </CharString>
        <CharString name="logicalnot">
          189 246 412 rmoveto
          -16 -20 callsubr
          510 hlineto
          -52 -41 -21 -45 -14 -63 -26 -112 rcurveline
          114 67 10 54 24 106 24 45 rlinecurve
          12 20 23 21 18 14 rrcurveto
          endchar
        </CharString>
        <CharString name="lslash">
          -214 424 440 rmoveto
          -12 -24 -27 -5 -27 hhcurveto
          -10 -10 0 3 -10 hvcurveto
          -40 -30 99 429 -32 -14 -33 -15 -32 -15 rlinecurve
          -11 callgsubr
          8 1 7 hhcurveto
          33 14 -19 -32 -15 -2 -15 -4 -15 hvcurveto
          -70 -304 -38 -22 -38 -21 -37 -22 rlinecurve
          2 -11 35 11 34 14 33 15 rlinecurve
          -42 18 callgsubr
          -21 -5 -22 -21 vvcurveto
          -30 11 -20 32 58 46 40 31 45 -40 callsubr
          44 188 56 30 54 34 52 37 rlinecurve
          endchar
        </CharString>
        <CharString name="m">
          258 791 66 rmoveto
          -4 -13 -13 -3 -14 hhcurveto
          -24 -20 6 28 17 5 16 4 16 hvcurveto
          54 233 rlineto
          2 11 1 10 10 vvcurveto
          39 -18 29 -41 -51 -91 -55 -28 -43 vhcurveto
          1 5 1 5 6 vvcurveto
          38 -20 29 -40 -51 -90 -55 -27 -43 vhcurveto
          4 16 4 16 17 vvcurveto
          27 -15 -27 callgsubr
          -13 -31 -40 -35 -12 rrcurveto
          5 14 14 -5 callsubr
          26 21 -7 -29 -21 -8 -20 -5 -20 hvcurveto
          -65 -281 rlineto
          -33 callsubr
          36 66 49 22 30 vhcurveto
          -3 -7 -8 -2 -8 hhcurveto
          -19 -8 20 callsubr
          1 5 hvcurveto
          35 151 rlineto
          49 12 33 103 62 hhcurveto
          40 15 36 callsubr
          -5 -21 -6 50 callgsubr
          -30 15 -12 29 53 55 44 29 41 vhcurveto
          -4 -12 -14 -3 -13 hhcurveto
          -28 -16 10 30 11 3 13 2 11 hvcurveto
          32 139 rlineto
          49 12 32 84 60 hhcurveto
          41 14 36 callsubr
          -4 -21 -7 50 callgsubr
          -30 15 -12 30 52 56 44 29 41 vhcurveto
          endchar
        </CharString>
        <CharString name="macron">
          -50 110 714 -67 callgsubr
        </CharString>
        <CharString name="minus">
          101 255 300 21 callsubr
          -18 hvcurveto
          352 -8 callsubr
        </CharString>
        <CharString name="mu">
          144 647 67 rmoveto
          -69 callgsubr
          23 104 27 103 23 103 rrcurveto
          1 6 1 5 6 vvcurveto
          19 -9 11 -20 -36 -54 callsubr
          6 -14 -17 -8 -1 -8 -1 40 callgsubr
          -256 rlineto
          -29 -28 -23 -7 -40 hhcurveto
          -57 -39 19 62 20 4 19 -10 callgsubr
          14 60 14 58 14 59 rrcurveto
          5 20 5 21 20 vvcurveto
          27 -13 13 -27 -53 -50 callgsubr
          30 14 -16 -29 -26 -9 -26 -6 -24 hvcurveto
          -133 -573 11 13 96 37 4 16 rlinecurve
          53 228 rlineto
          -12 17 20 -6 21 hhcurveto
          58 60 43 37 41 hvcurveto
          -3 -13 -3 -14 -14 vvcurveto
          -27 12 -14 28 82 19 57 18 56 vhcurveto
          endchar
        </CharString>
        <CharString name="multiply">
          -37 512 423 rmoveto
          -27 -26 -48 -7 -32 -30 -22 -20 -20 -21 -21 -20 -31 33 -29 51 -17 42 -17 -9 -87 -50 -7 -8 26 -50 29 -48 36 -44 -35 -28 -74 -53 -38 -19 1 -8 rcurveline
          53 28 52 35 49 35 rrcurveto
          -14 11 75 -84 9 19 77 68 12 hhcurveto
          -37 32 -33 36 -31 38 55 44 52 47 50 50 rrcurveto
          endchar
        </CharString>
        <CharString name="n">
          -99 callsubr
          endchar
        </CharString>
        <CharString name="nacute">
          -99 callsubr
          74 663 -104 callsubr
        </CharString>
        <CharString name="napostrophe">
          165 215 554 -74 callgsubr
          484 -486 -103 callsubr
          endchar
        </CharString>
        <CharString name="nbspace">
          -269 endchar
        </CharString>
        <CharString name="ncaron">
          -99 callsubr
          56 620 -100 callgsubr
        </CharString>
        <CharString name="ncommaaccent">
          -99 callsubr
          -248 -201 -92 callgsubr
        </CharString>
        <CharString name="nine">
          114 121 -179 rmoveto
          263 275 279 262 111 -55 83 -119 -140 -239 -164 -152 -91 78 -73 89 78 122 75 47 60 hvcurveto
          -148 -35 -86 -165 -174 hhcurveto
          -24 -88 4 34 10 8 10 6 7 hvcurveto
          -21 -20 -29 -14 -26 -14 -8 -4 -15 -5 -8 -6 rrcurveto
          -7 -6 -9 -15 -10 vvcurveto
          -34 81 -1 23 vhcurveto
          430 513 rmoveto
          -82 -80 -109 -86 -91 -76 76 91 91 53 88 101 91 88 -55 -100 vhcurveto
          endchar
        </CharString>
        <CharString name="notequal">
          8 429 368 rmoveto
          25 35 24 36 21 38 -12 -17 -80 -24 -18 -26 -10 -14 -7 -14 -9 -14 rrcurveto
          -138 hlineto
          -24 -68 -64 -3 -18 hvcurveto
          204 hlineto
          -16 -23 -17 -23 -17 -22 rrcurveto
          -75 hlineto
          -25 -67 -64 -2 -19 hvcurveto
          131 hlineto
          -31 -38 -33 -35 -35 -34 27 25 49 8 32 29 14 14 14 15 14 16 rrcurveto
          161 -18 callsubr
          -212 hlineto
          19 22 19 23 17 23 rrcurveto
          78 0 callsubr
          endchar
        </CharString>
        <CharString name="ntilde">
          -99 callsubr
          93 576 -88 callgsubr
        </CharString>
        <CharString name="numbersign">
          11 470 368 rmoveto
          25 55 24 56 24 55 -16 -18 -82 -25 -12 -23 -6 -10 -4 -13 -5 -10 -9 -23 -10 -22 -10 -22 rrcurveto
          -43 hlineto
          24 55 24 56 23 55 -14 -16 -84 -28 -12 -22 -6 -10 -4 -13 -4 -10 -9 -23 -10 -22 -9 -22 rrcurveto
          -24 hlineto
          -25 -65 -62 -5 -20 hvcurveto
          104 hlineto
          -14 -32 -15 -33 -15 -32 rrcurveto
          -17 hlineto
          -25 -65 -62 -5 -21 hvcurveto
          97 hlineto
          -29 -59 -28 -58 -30 -59 14 17 80 25 17 24 21 34 16 40 17 36 rrcurveto
          46 hlineto
          -28 -59 -28 -58 -29 -59 13 17 81 25 16 24 21 34 16 41 17 35 rrcurveto
          43 39 callgsubr
          63 4 21 hvcurveto
          -122 hlineto
          15 32 15 33 15 32 rrcurveto
          33 10 callgsubr
          -223 -67 rmoveto
          -15 -32 -15 -33 -15 -32 rrcurveto
          -45 hlineto
          16 32 15 33 14 32 rrcurveto
          endchar
        </CharString>
        <CharString name="o">
          -91 callsubr
          endchar
        </CharString>
        <CharString name="oacute">
          -91 callsubr
          81 463 -104 callsubr
        </CharString>
        <CharString name="obreve">
          -91 callsubr
          149 440 -96 callsubr
        </CharString>
        <CharString name="ocircumflex">
          -91 callsubr
          115 346 -106 callgsubr
        </CharString>
        <CharString name="odieresis">
          -91 callsubr
          80 410 -86 callsubr
        </CharString>
        <CharString name="oe">
          285 558 35 callsubr
          79 40 199 102 100 vvcurveto
          32 -20 23 -32 -73 -87 -62 -48 -52 vhcurveto
          70 -15 -54 45 -72 hhcurveto
          -47 callgsubr
          82 84 50 54 59 hvcurveto
          -64 10 39 -39 66 hhcurveto
          81 96 42 55 60 hvcurveto
          -16 -33 -47 -15 -36 hhcurveto
          -81 -45 43 80 -3 hvcurveto
          169 34 callgsubr
          -40 -102 -91 -61 callsubr
          -264 -97 -71 callsubr
          endchar
        </CharString>
        <CharString name="ogonek">
          -238 275 -124 rmoveto
          -12 -28 -39 37 callsubr
          47 44 44 35 28 hvcurveto
          -71 -25 -116 -77 -85 -33 callgsubr
        </CharString>
        <CharString name="ograve">
          -91 callsubr
          -31 342 -96 callgsubr
        </CharString>
        <CharString name="ohungarumlaut">
          -91 callsubr
          238 487 -79 callgsubr
        </CharString>
        <CharString name="omacron">
          -91 callsubr
          -169 340 -67 callgsubr
        </CharString>
        <CharString name="one">
          -147 201 66 rmoveto
          33 24 24 53 9 38 82 351 rcurveline
          -223 -117 -3 -16 114 59 -84 -358 -11 -48 -23 -20 -36 -30 rlinecurve
          -1 -2 rlineto
          189 hlineto
          15 79 56 10 16 hvcurveto
          endchar
        </CharString>
        <CharString name="onehalf">
          362 606 66 rmoveto
          23 93 292 65 151 vvcurveto
          55 -54 15 -45 -63 -82 -54 -39 -48 vhcurveto
          -28 -24 -26 -34 -39 vvcurveto
          -7 1 -8 2 -8 vhcurveto
          16 9 51 callgsubr
          9 10 vvcurveto
          19 7 18 11 16 vhcurveto
          4 4 1 4 hhcurveto
          43 53 -21 -50 -97 -129 -42 -65 -42 42 callgsubr
          -5 -1 -3 rrcurveto
          240 hlineto
          24 69 64 2 17 hvcurveto
          -24 733 46 callsubr
          -2 -10 -3 5 callgsubr
          41 11 33 26 50 39 45 49 43 46 74 81 70 85 67 6 callsubr
          -559 -455 16 callsubr
          rrcurveto
          -1 -2 0 -2 -2 vvcurveto
          10 4 callsubr
          152 37 callgsubr
          endchar
        </CharString>
        <CharString name="onequarter">
          379 768 7 callsubr
          -20 -23 -8 -21 -17 -15 18 callsubr
          -92 -66 -11 23 callgsubr
          109 hlineto
          15 79 56 10 16 hvcurveto
          -103 hlineto
          15 12 13 13 9 17 rrcurveto
          62 691 rmoveto
          -32 48 callgsubr
          -3 -5 -65 -149 -96 19 callgsubr
          33 26 41 11 33 26 50 39 45 49 43 46 74 81 70 85 68 24 callgsubr
          69 161 rrcurveto
          -559 -455 rmoveto
          30 12 19 38 7 28 69 28 callsubr
          -6 -14 rrcurveto
          -2 -1 -2 -2 vvcurveto
          10 5 9 6 10 6 21 13 22 13 21 13 -21 -90 -21 -92 -21 -91 -15 -60 -8 2 -40 -43 rrcurveto
          151 37 callgsubr
          267 -179 rmoveto
          -160 hlineto
          68 44 66 49 61 54 rrcurveto
          endchar
        </CharString>
        <CharString name="onesuperior">
          -187 254 344 16 callsubr
          -1 -2 0 -2 -1 -2 11 4 callsubr
          151 hlineto
          51 callsubr
        </CharString>
        <CharString name="ordfeminine">
          -29 538 434 rmoveto
          -2 -8 -9 -3 -8 hhcurveto
          -17 -6 11 16 12 4 13 3 13 hvcurveto
          32 139 rlineto
          1 8 2 8 8 vvcurveto
          42 -32 16 -39 -63 -59 -43 -36 -49 vhcurveto
          8 20 22 5 22 hhcurveto
          39 28 -11 -44 -13 -3 -14 -2 -14 hvcurveto
          -18 -1 -17 -3 -17 -5 rrcurveto
          -47 -14 -126 -70 -55 vvcurveto
          -30 34 -9 25 45 47 21 22 40 vhcurveto
          -2 -7 -1 -6 -8 vvcurveto
          -16 9 -8 16 57 29 54 16 48 vhcurveto
          -326 -138 rmoveto
          -51 callgsubr
          279 hlineto
          25 67 63 -10 callgsubr
          -104 138 rmoveto
          -1 -11 -11 -2 -11 hhcurveto
          -24 -30 7 30 7 1 6 2 6 hvcurveto
          6 15 16 3 17 hhcurveto
          16 17 -3 -5 15 hvcurveto
          endchar
        </CharString>
        <CharString name="ordmasculine">
          -34 312 371 rmoveto
          99 183 122 111 64 -50 44 -63 -105 -180 -127 -113 -65 55 -36 61 hvcurveto
          -85 -75 rmoveto
          -49 callsubr
          279 hlineto
          25 63 62 5 22 hvcurveto
          -23 244 rmoveto
          -38 -17 -67 -47 -65 -46 42 66 39 16 65 48 63 48 -43 -64 vhcurveto
          endchar
        </CharString>
        <CharString name="oslash">
          -60 callgsubr
          endchar
        </CharString>
        <CharString name="oslashacute">
          -60 callgsubr
          129 462 -104 callsubr
        </CharString>
        <CharString name="otilde">
          -91 callsubr
          184 393 -88 callgsubr
        </CharString>
        <CharString name="p">
          41 223 -7 rmoveto
          173 199 169 180 87 -47 48 -87 -59 -64 -42 -31 -48 hvcurveto
          3 13 3 13 12 vvcurveto
          26 -14 12 -26 -52 -63 -46 -30 -41 vhcurveto
          5 14 15 4 16 hhcurveto
          24 18 -7 -27 -10 -2 -10 -2 -9 hvcurveto
          -129 -551 rlineto
          -3 -13 -2 -14 -14 vvcurveto
          -34 15 -21 37 45 46 36 38 24 vhcurveto
          -4 -8 -15 -4 -8 hhcurveto
          -18 -18 4 21 44 callgsubr
          44 187 rlineto
          -1 9 9 -1 10 hhcurveto
          262 286 rmoveto
          -93 -35 -128 -114 -49 -43 22 49 -18 vhcurveto
          55 35 callgsubr
          22 16 31 22 29 hhcurveto
          85 43 -47 -84 hvcurveto
          endchar
        </CharString>
        <CharString name="paragraph">
          170 519 -27 callsubr
          -31 -30 -1 -8 -30 hvcurveto
          -120 -32 -164 -112 -137 vvcurveto
          -106 98 -50 94 vhcurveto
          10 10 1 10 hhcurveto
          -72 -306 18 17 88 32 4 17 rlinecurve
          62 263 20 7 19 12 18 12 rlinecurve
          -84 -360 17 17 89 32 4 17 rlinecurve
          144 619 rlineto
          18 hlineto
          15 78 54 12 17 hvcurveto
          -293 -370 rmoveto
          -17 -4 -17 -3 -18 -1 72 312 rcurveline
          51 hlineto
          -216 -305 rmoveto
          -84 -46 64 79 112 51 51 116 11 11 0 -1 12 hvcurveto
          endchar
        </CharString>
        <CharString name="parenleft">
          -55 664 832 rmoveto
          -119 -33 -128 -77 -96 -75 rrcurveto
          -132 -103 -94 -189 -167 vvcurveto
          -151 69 -186 179 24 56 54 12 30 vhcurveto
          -179 2 -69 180 153 vvcurveto
          154 78 172 113 105 vhcurveto
          61 56 29 0 72 27 42 16 26 36 38 14 rrcurveto
          endchar
        </CharString>
        <CharString name="parenright">
          -50 -32 -149 rmoveto
          290 55 277 269 305 vvcurveto
          136 -53 151 -136 53 vhcurveto
          6 -17 -19 6 -18 hhcurveto
          -26 -54 -55 -11 -31 hvcurveto
          176 -14 65 -196 -150 vvcurveto
          -178 -88 -194 -164 -82 vhcurveto
          -30 -16 -30 -8 -31 -11 -45 -15 -27 -36 -39 -15 rrcurveto
          endchar
        </CharString>
        <CharString name="partialdiff">
          35 228 -11 rmoveto
          241 123 251 207 107 -25 107 -71 84 hvcurveto
          11 -10 -47 51 -13 hhcurveto
          -24 -64 -65 -2 -20 hvcurveto
          93 -67 51 -97 17 -112 rrcurveto
          5 -16 -16 2 -16 hhcurveto
          -148 -203 -175 -152 -87 58 -68 90 hvcurveto
          237 261 rmoveto
          -71 -40 -125 -88 -93 -52 67 90 71 39 124 88 92 54 -66 -90 vhcurveto
          endchar
        </CharString>
        <CharString name="percent">
          441 678 -9 rmoveto
          23 callsubr
          -37 60 -76 -45 -45 -27 -22 -38 hvcurveto
          -101 -58 -87 -78 -129 30 callgsubr
          201 808 rmoveto
          -32 -22 -52 -15 -26 -29 -4 -4 -2 -10 -2 -5 -64 -149 -98 -136 -99 -128 -108 -2 callsubr
          25 40 13 33 25 22 16 20 20 19 18 105 2 callgsubr
          181 186 129 67 -42 60 -72 -45 -45 -27 -22 -38 hvcurveto
          -101 -59 -87 -78 -128 30 callgsubr
          617 -32 rmoveto
          -59 -35 44 callsubr
          -6 -1 -7 hhcurveto
          -77 -37 16 callgsubr
          -414 280 rmoveto
          -60 -35 -80 -41 -42 vhcurveto
          -1 -7 22 callsubr
          5 43 callsubr
        </CharString>
        <CharString name="period">
          -288 27 callgsubr
          endchar
        </CharString>
        <CharString name="periodcentered">
          -280 242 426 rmoveto
          -16 callgsubr
          38 callgsubr
        </CharString>
        <CharString name="perthousand">
          881 1117 -9 rmoveto
          23 callsubr
          -37 60 -76 -51 -109 -61 -35 -43 hvcurveto
          -65 -53 -48 -79 -86 30 callgsubr
          -440 hmoveto
          23 callsubr
          -36 60 -76 -51 -110 -61 -35 -42 hvcurveto
          -65 -53 -49 -79 -86 30 callgsubr
          202 808 rmoveto
          -33 -22 -51 -15 -26 -29 -4 -4 -2 -10 -3 -5 -63 -149 -99 -9 callgsubr
          25 41 13 33 25 21 16 20 20 19 18 106 2 callgsubr
          180 186 129 67 -41 60 -72 -51 -110 -62 -34 -42 hvcurveto
          -65 -54 -49 -78 -86 vvcurveto
          -74 40 -54 78 vhcurveto
          1056 -32 rmoveto
          -59 -35 44 callsubr
          -7 -1 -6 hhcurveto
          -78 -36 16 callgsubr
          -440 hmoveto
          -59 -35 -80 -41 -42 vhcurveto
          -1 -7 -6 -1 -6 hhcurveto
          -78 -37 64 70 62 31 69 42 46 hvcurveto
          4 4 1 5 hhcurveto
          77 47 -54 -75 hvcurveto
          -414 280 rmoveto
          -60 -34 44 callsubr
          22 callsubr
          4 43 callsubr
        </CharString>
        <CharString name="pi">
          15 203 465 rmoveto
          -15 -78 -54 -12 -17 hvcurveto
          131 hlineto
          -98 -419 12 15 95 35 3 17 rlinecurve
          82 352 rlineto
          70 hlineto
          -74 -319 rlineto
          -4 -16 -3 -16 -16 vvcurveto
          -27 11 -17 29 80 21 56 18 55 vhcurveto
          -4 -14 -14 -3 -16 hhcurveto
          -23 -23 4 29 16 5 17 4 16 hvcurveto
          61 262 rlineto
          50 hlineto
          25 69 64 2 17 hvcurveto
          endchar
        </CharString>
        <CharString name="plus">
          -4 379 300 rmoveto
          41 177 -14 -16 -92 -35 -4 -16 rlinecurve
          -26 -110 rlineto
          -81 20 callgsubr
          176 hlineto
          -41 -176 14 15 92 35 4 16 rlinecurve
          26 110 rlineto
          81 -18 callsubr
          endchar
        </CharString>
        <CharString name="plusminus">
          29 394 300 rmoveto
          34 147 -14 -15 -92 -35 -4 -16 rlinecurve
          -19 -81 rlineto
          -81 hlineto
          -25 -67 -63 -3 -19 hvcurveto
          177 hlineto
          -34 -148 14 16 92 35 4 16 rlinecurve
          19 81 rlineto
          81 -18 callgsubr
          -406 -234 rmoveto
          -25 -68 -63 -3 -18 hvcurveto
          353 hlineto
          24 -38 callsubr
          endchar
        </CharString>
        <CharString name="product">
          193 303 -25 callgsubr
          -11 -18 hvcurveto
          164 hlineto
          -155 -666 14 15 93 48 callsubr
          103 hlineto
          -155 -666 15 15 92 48 callsubr
          94 -18 callsubr
          endchar
        </CharString>
        <CharString name="q">
          59 674 484 rmoveto
          -39 -12 -57 -30 -28 -28 rrcurveto
          42 -23 -39 22 -48 hhcurveto
          -151 -211 -169 -159 -93 67 -65 92 56 59 40 29 46 hvcurveto
          -58 -252 rlineto
          -4 -16 -2 -15 -16 vvcurveto
          -26 7 -33 33 48 48 34 40 25 vhcurveto
          -4 -9 -14 -4 -9 hhcurveto
          -20 -8 13 18 6 1 6 1 5 hvcurveto
          113 489 20 83 34 47 70 48 rlinecurve
          -273 -409 rmoveto
          -12 -21 -9 -5 -25 hhcurveto
          -96 -61 63 95 86 36 108 103 69 42 -44 -63 18 hvcurveto
          endchar
        </CharString>
        <CharString name="question">
          3 243 158 rmoveto
          5 13 100 33 5 21 2 9 -1 9 2 9 rrcurveto
          29 133 234 38 176 vvcurveto
          73 -51 48 -72 -86 -106 -66 -53 -66 vhcurveto
          -47 -38 -39 -57 -62 vvcurveto
          -13 2 27 callsubr
          63 45 80 71 68 66 -39 -74 -77 -66 -74 -56 -43 vhcurveto
          -58 -46 -91 -55 1 -84 rrcurveto
          69 -28 rmoveto
          -111 26 callgsubr
          38 callgsubr
        </CharString>
        <CharString name="questiondown">
          1 458 720 rmoveto
          -110 -67 32 -81 -51 callsubr
          -295 -654 rmoveto
          87 106 66 53 65 hvcurveto
          47 39 39 56 63 vvcurveto
          12 -2 13 -3 13 vhcurveto
          -111 -67 rlineto
          4 -12 1 -13 -12 vvcurveto
          -63 -45 -81 -71 -68 -66 39 75 76 66 74 56 43 vhcurveto
          58 46 91 55 -1 84 rrcurveto
          3 vlineto
          -5 -13 -100 -33 -5 -21 -2 -9 1 -9 -2 -9 rrcurveto
          -28 -133 -235 -38 -176 vvcurveto
          -72 51 -49 72 vhcurveto
          endchar
        </CharString>
        <CharString name="quotedbl">
          -172 344 479 rmoveto
          16 18 18 17 16 19 rrcurveto
          28 31 47 89 43 vvcurveto
          9 -3 10 -11 -38 2 callsubr
          -4 -41 vhcurveto
          -147 hmoveto
          -12 callsubr
        </CharString>
        <CharString name="quotedblbase">
          -107 -45 callsubr
          176 3 rmoveto
          23 -29 62 0 11 callgsubr
          4 8 15 10 8 hhcurveto
          12 3 6 callgsubr
          14 44 35 31 callgsubr
          endchar
        </CharString>
        <CharString name="quotedblleft">
          -122 461 597 rmoveto
          -4 -8 -15 -10 -8 hhcurveto
          -12 -3 -21 callsubr
          -23 29 -62 0 vhcurveto
          -51 callsubr
          -208 81 -22 callgsubr
        </CharString>
        <CharString name="quotedblright">
          -121 502 634 rmoveto
          23 -28 62 0 vhcurveto
          29 callgsubr
          -30 callgsubr
          13 44 36 31 callgsubr
          -175 3 -23 callsubr
        </CharString>
        <CharString name="quoteleft">
          -298 285 597 -22 callgsubr
        </CharString>
        <CharString name="quoteright">
          -297 327 634 -23 callsubr
        </CharString>
        <CharString name="quotesinglbase">
          -283 -45 callsubr
          endchar
        </CharString>
        <CharString name="quotesingle">
          -318 197 479 rmoveto
          -12 callsubr
        </CharString>
        <CharString name="r">
          -89 callsubr
          endchar
        </CharString>
        <CharString name="racute">
          -89 callsubr
          41 264 -104 callsubr
        </CharString>
        <CharString name="rcaron">
          -89 callsubr
          7 223 -100 callgsubr
        </CharString>
        <CharString name="rcommaaccent">
          -89 callsubr
          -417 -610 -92 callgsubr
        </CharString>
        <CharString name="registered">
          28 callgsubr
          136 -109 82 -128 -223 -283 -210 -237 -144 110 -68 133 hvcurveto
          196 391 rmoveto
          -37 -22 -8 -33 vhcurveto
          -69 hlineto
          23 99 rlineto
          37 64 -5 -49 hvcurveto
          195 -13 rmoveto
          -156 -113 -157 -167 -70 -72 23 52 -49 vhcurveto
          67 39 callgsubr
          62 4 21 hvcurveto
          -24 -27 -3 4 -23 hvcurveto
          16 24 10 14 7 29 rrcurveto
          78 14 -133 46 hhcurveto
          50 55 28 44 26 hvcurveto
          -4 -6 -10 -3 -7 hhcurveto
          -33 -32 109 21 -50 hvcurveto
          40 22 76 42 52 vvcurveto
          54 -87 6 -39 vhcurveto
          -118 -28 callgsubr
          50 hlineto
          -51 -218 -7 -29 -5 -32 -22 -21 rlinecurve
          -33 37 -16 43 49 vvcurveto
          167 101 150 181 128 115 -75 -138 vhcurveto
          endchar
        </CharString>
        <CharString name="ring">
          -194 84 571 -63 callsubr
        </CharString>
        <CharString name="s">
          -73 callsubr
          endchar
        </CharString>
        <CharString name="sacute">
          -73 callsubr
          200 329 -104 callsubr
        </CharString>
        <CharString name="scaron">
          -105 341 -80 callgsubr
          238 303 -100 callgsubr
        </CharString>
        <CharString name="scedilla">
          -105 356 396 rmoveto
          -5 -4 -5 -4 -4 vhcurveto
          24 18 26 14 26 13 -62 callgsubr
          9 5 8 7 7 vhcurveto
          -31 -24 -90 -26 -40 21 callgsubr
          8 10 1 1 9 vhcurveto
          -65 -47 -81 -61 -16 callsubr
          55 47 rlineto
          103 21 149 84 98 -26 callgsubr
          vhcurveto
          -13 -17 rmoveto
          5 3 -2 -1 -1 -1 -2 -1 rlinecurve
          -183 -259 rmoveto
          -2 -2 rlineto
          endchar
        </CharString>
        <CharString name="scircumflex">
          -73 callsubr
          157 208 -106 callgsubr
        </CharString>
        <CharString name="section">
          77 561 687 rmoveto
          23 7 109 64 23 vvcurveto
          26 -89 6 -19 -113 -264 -128 -131 -27 9 -28 21 -19 vhcurveto
          -41 -34 -36 -52 -56 vvcurveto
          -42 21 -35 37 -21 vhcurveto
          69 -38 188 15 -113 vvcurveto
          -97 -83 -47 -88 -35 -126 12 48 16 13 14 11 10 vhcurveto
          -34 -17 -100 -46 -44 vvcurveto
          -50 137 -8 36 125 253 129 143 22 -7 21 -15 18 vhcurveto
          38 36 28 50 54 vvcurveto
          90 -92 33 -73 19 vhcurveto
          -37 10 -45 3 -31 24 rrcurveto
          0 vlineto
          0 vlineto
          1 vlineto
          -1 vlineto
          0 vlineto
          0 vlineto
          -22 16 -12 23 28 vvcurveto
          85 54 47 84 22 106 -4 -29 -10 -14 -12 -8 -4 vhcurveto
          -40 -385 rmoveto
          -15 -3 -16 -5 -14 vhcurveto
          -82 29 -163 -5 126 vvcurveto
          17 4 18 7 16 vhcurveto
          37 -12 39 -2 37 -11 rrcurveto
          62 -19 67 -39 -73 vvcurveto
          endchar
        </CharString>
        <CharString name="semicolon">
          -245 26 callsubr
          -76 -320 rmoveto
          21 -20 47 -9 21 11 callgsubr
          5 8 14 9 9 hhcurveto
          11 4 -10 -10 -42 -45 -49 -31 -25 hvcurveto
          17 13 20 6 17 13 rrcurveto
          43 33 40 59 57 vvcurveto
          endchar
        </CharString>
        <CharString name="seven">
          -36 229 532 rmoveto
          -16 -44 callsubr
          375 hlineto
          -87 -147 -71 -157 -97 -141 -67 -98 -61 -52 -100 -63 -9 -5 -8 -4 -8 -5 1 -3 rcurveline
          125 46 160 143 78 107 36 52 31 58 31 54 53 93 52 94 51 95 rrcurveto
          endchar
        </CharString>
        <CharString name="six">
          116 729 655 rmoveto
          7 7 9 12 12 vvcurveto
          33 -81 1 -22 -268 -273 -283 -265 -109 60 -82 114 142 235 159 146 90 -80 70 -88 -77 -122 -75 -47 -61 vhcurveto
          132 28 93 199 158 hhcurveto
          25 107 -1 -36 -10 -7 -10 -6 -6 hvcurveto
          21 20 58 29 28 14 rrcurveto
          -191 -441 rmoveto
          -87 -65 -80 -90 -113 -56 82 106 vhcurveto
          3 vlineto
          69 32 59 76 83 hhcurveto
          91 59 -84 -85 hvcurveto
          endchar
        </CharString>
        <CharString name="slash">
          -47 586 -27 callsubr
          -34 -26 -45 -9 -31 -32 -1 -1 -27 -48 -2 -3 -31 -54 -32 -53 -33 -53 -94 -148 -105 -142 -112 -134 35 28 39 7 36 31 29 27 56 78 25 33 122 157 109 168 96 174 rrcurveto
          endchar
        </CharString>
        <CharString name="space">
          -269 endchar
        </CharString>
        <CharString name="sterling">
          104 722 690 rmoveto
          23 -94 11 -19 -97 -69 -42 -53 -78 vhcurveto
          -88 -61 -15 -122 -23 -96 rrcurveto
          -24 hlineto
          -15 -78 -54 1 callsubr
          121 hlineto
          -39 -170 -14 -56 -17 -22 -45 -36 rlinecurve
          316 hlineto
          38 104 70 23 34 hvcurveto
          -15 -26 -39 -12 -30 hhcurveto
          -277 hlineto
          20 15 34 51 6 23 11 43 9 44 10 44 80 6 68 35 61 52 rrcurveto
          -12 -23 -38 -17 -25 hhcurveto
          -108 hlineto
          18 78 16 67 17 100 41 55 rlinecurve
          5 22 23 3 23 hhcurveto
          19 97 -12 -19 5 hvcurveto
          -17 -11 rlineto
          -1 vlineto
          22 6 101 45 24 vvcurveto
          endchar
        </CharString>
        <CharString name="t">
          -178 -70 callsubr
          endchar
        </CharString>
        <CharString name="tbar">
          -178 259 300 rmoveto
          29 123 8 callgsubr
          -156 hlineto
          -41 callgsubr
          -31 -133 -31 -19 -41 -35 -13 -2 rlinecurve
          71 hlineto
          -26 -115 -48 callgsubr
          18 78 30 16 47 42 15 2 rlinecurve
          endchar
        </CharString>
        <CharString name="tcaron">
          -66 -70 callsubr
          129 69 -74 callgsubr
          endchar
        </CharString>
        <CharString name="tcommaaccent">
          -178 -70 callsubr
          -275 -625 -92 callgsubr
        </CharString>
        <CharString name="thorn">
          25 205 -10 rmoveto
          184 192 177 187 86 -47 48 -87 -59 -64 -41 -31 -48 hvcurveto
          44 188 rlineto
          4 20 5 20 20 vvcurveto
          23 -7 22 -28 -54 -61 -45 -32 -43 vhcurveto
          7 16 17 5 18 hhcurveto
          25 9 -18 -23 -16 -4 -15 -3 -15 hvcurveto
          -176 -758 rlineto
          -3 -14 -3 -14 -13 vvcurveto
          -34 16 -21 35 47 46 36 38 23 vhcurveto
          -4 -8 -14 -4 -10 hhcurveto
          -18 -17 4 21 44 callgsubr
          43 184 rlineto
          -2 10 9 0 9 hhcurveto
          263 292 rmoveto
          -95 -33 -132 -116 -50 -43 23 48 -18 vhcurveto
          59 251 rlineto
          23 18 27 22 31 hhcurveto
          88 37 -58 -82 hvcurveto
          endchar
        </CharString>
        <CharString name="three">
          23 287 532 rmoveto
          -16 -44 callsubr
          328 hlineto
          -74 -79 -74 -85 -85 -67 -20 -15 -20 -13 -19 -15 rrcurveto
          92 -3 113 -14 -117 vvcurveto
          -112 -63 -83 -120 -33 -117 10 45 14 12 14 10 9 vhcurveto
          -33 -17 -98 -44 -42 vvcurveto
          -45 115 -11 32 101 101 56 54 81 vhcurveto
          75 50 45 76 91 vvcurveto
          116 -108 16 -93 3 vhcurveto
          110 76 92 100 90 99 rrcurveto
          endchar
        </CharString>
        <CharString name="threequarters">
          437 826 7 callsubr
          -19 -24 -8 -21 -16 -16 18 callsubr
          -91 -66 -12 23 callgsubr
          110 hlineto
          15 78 56 10 17 hvcurveto
          -103 hlineto
          15 12 12 13 9 17 rrcurveto
          63 691 rmoveto
          -33 48 callgsubr
          -2 -5 -65 -149 -97 19 callgsubr
          34 26 41 11 32 26 50 39 45 49 43 15 callgsubr
          -542 -96 rmoveto
          -7 callgsubr
          -11 -17 hvcurveto
          221 hlineto
          -60 -56 -62 -51 -68 -47 rrcurveto
          55 -1 86 -4 -74 vvcurveto
          -23 -7 -26 -12 -1 callsubr
          72 66 37 37 60 vhcurveto
          51 15 callsubr
          178 -538 rmoveto
          22 callgsubr
          68 44 66 49 61 54 rrcurveto
          endchar
        </CharString>
        <CharString name="threesuperior">
          -76 338 12 callsubr
          -20 callsubr
          221 hlineto
          -60 -56 -62 -51 -68 -47 rrcurveto
          55 -1 86 -4 -74 vvcurveto
          -23 -6 -26 -13 -1 callsubr
          73 66 37 37 60 vhcurveto
          50 15 callsubr
          endchar
        </CharString>
        <CharString name="tilde">
          -34 479 734 -88 callgsubr
        </CharString>
        <CharString name="trademark">
          702 1256 -27 callsubr
          -28 -16 -63 -29 -19 -21 -22 -25 -18 -29 -21 -25 -43 -56 -45 -53 -45 -53 -12 49 -20 48 -18 48 -59 162 rcurveline
          -74 hlineto
          -11 -86 -56 -10 -13 hvcurveto
          73 hlineto
          -16 -53 -17 -52 -16 -53 -24 -76 -17 -88 -58 -60 rrcurveto
          97 hlineto
          15 78 55 11 18 hvcurveto
          -94 hlineto
          37 33 36 118 13 49 29 -82 31 -83 9 -87 20 12 79 43 11 11 19 21 16 25 17 22 37 47 38 46 39 46 -14 -74 -11 -75 -17 -73 -6 -24 -7 -24 -17 -17 rrcurveto
          87 hlineto
          28 53 58 8 29 hvcurveto
          -87 hlineto
          16 16 10 31 6 21 4 20 3 19 3 20 16 85 16 85 15 85 rrcurveto
          -932 hmoveto
          -15 -78 0 callgsubr
          154 hlineto
          -24 -104 -22 -104 -26 -103 -7 -30 -16 -25 -27 -16 rrcurveto
          106 hlineto
          53 callgsubr
          hvcurveto
          -115 hlineto
          31 18 25 40 8 35 51 223 rcurveline
          83 19 callsubr
          endchar
        </CharString>
        <CharString name="two">
          22 147 66 rmoveto
          18 68 219 174 64 48 rrcurveto
          73 55 118 97 101 vvcurveto
          74 -73 34 -65 -61 -51 -33 -31 -51 vhcurveto
          -82 -49 -85 -55 -107 vvcurveto
          -12 1 27 callsubr
          77 34 66 88 63 62 -44 -67 -144 -255 -153 -100 -86 vhcurveto
          -52 -46 -47 -54 -39 -58 rrcurveto
          367 hlineto
          28 53 59 7 30 hvcurveto
          -366 hlineto
          endchar
        </CharString>
        <CharString name="twosuperior">
          -79 226 334 rmoveto
          22 92 292 65 152 vvcurveto
          55 -54 15 -45 -64 -81 -55 -39 -47 vhcurveto
          -29 -24 -26 -33 -40 vvcurveto
          -7 1 -8 2 -7 vhcurveto
          16 8 51 callgsubr
          10 9 vvcurveto
          19 7 18 10 16 vhcurveto
          1 5 4 0 4 hhcurveto
          42 54 -21 -49 -97 -129 -42 -65 -43 42 callgsubr
          -4 -1 -3 rrcurveto
          240 hlineto
          24 69 63 3 17 hvcurveto
          -241 hlineto
          endchar
        </CharString>
        <CharString name="u">
          -107 callsubr
          endchar
        </CharString>
        <CharString name="uacute">
          -107 callsubr
          54 627 -104 callsubr
        </CharString>
        <CharString name="ubreve">
          -107 callsubr
          24 635 -96 callsubr
        </CharString>
        <CharString name="ucircumflex">
          -107 callsubr
          -12 530 -106 callgsubr
        </CharString>
        <CharString name="udieresis">
          -107 callsubr
          -45 597 -86 callsubr
        </CharString>
        <CharString name="ugrave">
          -107 callsubr
          -120 484 -96 callgsubr
        </CharString>
        <CharString name="uhungarumlaut">
          -107 callsubr
          138 668 -79 callgsubr
        </CharString>
        <CharString name="umacron">
          -107 callsubr
          -312 526 -67 callgsubr
        </CharString>
        <CharString name="underscore">
          -27 87 -98 21 callsubr
          -18 hvcurveto
          352 37 callgsubr
          endchar
        </CharString>
        <CharString name="uni00AD">
          5 callsubr
        </CharString>
        <CharString name="uni0312">
          -341 299 716 -19 callgsubr
        </CharString>
        <CharString name="uni0315">
          -401 111 754 -74 callgsubr
          endchar
        </CharString>
        <CharString name="uni0326">
          -329 159 -135 -92 callgsubr
        </CharString>
        <CharString name="uogonek">
          67 602 -10 callsubr
          33 21 31 24 26 hvcurveto
          54 13 21 42 47 15 rrcurveto
          -107 callgsubr
          -13 27 -1 vhcurveto
          -59 -36 -58 -57 -60 -33 callgsubr
        </CharString>
        <CharString name="uring">
          -107 callsubr
          -236 450 -63 callsubr
        </CharString>
        <CharString name="utilde">
          -107 callsubr
          61 566 -88 callgsubr
        </CharString>
        <CharString name="v">
          5 209 -26 rmoveto
          10 12 78 34 20 19 17 15 16 19 15 17 rrcurveto
          63 69 172 194 92 vvcurveto
          18 -9 9 -18 -62 -26 -54 -18 -51 vhcurveto
          4 10 10 2 10 hhcurveto
          18 8 -9 -17 -74 -132 -160 -49 -56 hvcurveto
          -1 70 -10 260 -48 43 rrcurveto
          7 -7 -6 3 -10 hhcurveto
          -53 -52 -44 -37 -38 hvcurveto
          7 12 18 6 13 hhcurveto
          48 9 -73 -36 5 hvcurveto
          18 -107 1 -107 1 -108 rrcurveto
          endchar
        </CharString>
        <CharString name="w">
          -98 callsubr
          endchar
        </CharString>
        <CharString name="wacute">
          -98 callsubr
          251 734 -104 callsubr
        </CharString>
        <CharString name="wcircumflex">
          -98 callsubr
          241 585 -106 callgsubr
        </CharString>
        <CharString name="wdieresis">
          -98 callsubr
          200 651 -86 callsubr
        </CharString>
        <CharString name="wgrave">
          -98 callsubr
          81 573 -96 callgsubr
        </CharString>
        <CharString name="x">
          21 525 485 rmoveto
          -14 -80 -54 -13 -16 hvcurveto
          70 hlineto
          -38 -43 -40 -41 -41 -41 -14 33 -56 148 -20 14 rrcurveto
          3 -4 -4 1 -4 hhcurveto
          -26 -93 -59 -17 -26 hvcurveto
          4 8 12 5 9 hhcurveto
          36 14 -58 -26 10 hvcurveto
          20 -48 21 -48 19 -48 rrcurveto
          -16 -18 -127 -115 -12 hhcurveto
          -28 -30 -34 -14 -23 hvcurveto
          -9 -7 -10 -5 -10 -6 rrcurveto
          113 hlineto
          28 55 60 6 28 hvcurveto
          -83 hlineto
          47 32 47 34 43 39 22 -53 20 -58 31 -49 rrcurveto
          -14 8 8 -6 17 hhcurveto
          56 60 33 46 32 hvcurveto
          -6 -10 -17 -9 -11 hhcurveto
          -15 -12 14 12 -8 hvcurveto
          -35 55 -21 67 -26 60 54 51 52 51 51 53 rrcurveto
          10 hlineto
          15 80 55 12 16 hvcurveto
          endchar
        </CharString>
        <CharString name="y">
          -98 callgsubr
          endchar
        </CharString>
        <CharString name="yacute">
          -98 callgsubr
          577 963 -104 callsubr
        </CharString>
        <CharString name="ycircumflex">
          -98 callgsubr
          500 875 -106 callgsubr
        </CharString>
        <CharString name="ydieresis">
          -98 callgsubr
          474 960 -86 callsubr
        </CharString>
        <CharString name="yen">
          195 524 308 rmoveto
          68 66 223 204 90 vvcurveto
          31 -23 16 -29 -63 -28 -57 -13 -45 vhcurveto
          2 9 10 -29 callgsubr
          -53 -51 hvcurveto
          -5 94 -45 162 -53 79 rrcurveto
          23 -16 -19 14 -30 hhcurveto
          -57 -72 -47 -38 -7 callsubr
          95 64 -268 -75 7 hvcurveto
          -40 hlineto
          -51 callgsubr
          147 hlineto
          -11 -47 rlineto
          -52 hlineto
          -16 -77 -54 -13 -18 hvcurveto
          148 hlineto
          -13 -56 -22 -33 -44 -38 rrcurveto
          171 19 callsubr
          -157 hlineto
          18 18 16 24 11 24 66 5 76 37 45 49 rrcurveto
          -14 -23 -36 -15 -27 hhcurveto
          -82 hlineto
          12 52 65 4 77 34 40 52 rlinecurve
          -13 -22 -37 -16 -26 hhcurveto
          -80 1 rlineto
          endchar
        </CharString>
        <CharString name="ygrave">
          -98 callgsubr
          402 854 -96 callgsubr
        </CharString>
        <CharString name="z">
          -75 callgsubr
          endchar
        </CharString>
        <CharString name="zacute">
          -75 callgsubr
          107 254 -104 callsubr
        </CharString>
        <CharString name="zcaron">
          -70 532 -85 callgsubr
          78 234 -100 callgsubr
        </CharString>
        <CharString name="zdotaccent">
          -75 callgsubr
          -118 183 -78 callgsubr
        </CharString>
        <CharString name="zero">
          207 310 -13 rmoveto
          70 73 39 36 58 hvcurveto
          150 92 123 149 183 vvcurveto
          123 -65 105 -134 -71 -75 -40 -35 -60 vhcurveto
          -155 -94 -111 -144 -186 vvcurveto
          -124 62 -104 135 vhcurveto
          364 431 rmoveto
          -129 -98 -236 -153 -136 -63 108 125 147 84 214 172 130 64 -110 -119 vhcurveto
          endchar
        </CharString>
      <CharString index="0">
        -69 callgsubr
        72 310 rlineto
        1 6 1 6 6 vvcurveto
        18 -8 11 -19 -37 -54 callsubr
        7 -14 -17 34 callsubr
        -2 40 callgsubr
        -258 rlineto
        -17 -29 -28 -22 -35 hhcurveto
        -57 -38 19 62 20 3 19 -10 callgsubr
        14 61 15 61 14 60 rrcurveto
        5 20 6 21 20 vvcurveto
        27 -14 13 -26 -54 -50 callgsubr
        29 14 -13 -28 -16 -3 -16 -4 -15 hvcurveto
        -38 -165 rlineto
        -6 -23 -3 -25 -24 vvcurveto
        -53 20 -44 59 72 77 43 38 59 vhcurveto
        -3 -13 -2 -13 -12 vvcurveto
        -27 12 return
      </CharString>
      <CharString index="1">
        rmoveto
        -25 35 -23 36 -26 35 rrcurveto
        0 -8 10 0 -10 -84 -55 -10 -13 vhcurveto
        -149 -116 23 18 27 14 26 14 rlinecurve
        10 6 12 4 9 7 49 38 rcurveline
        21 -30 21 -31 22 -30 rrcurveto
        -1 1 8 -11 1 hhcurveto
        11 82 56 11 15 hvcurveto
        endchar
      </CharString>
      <CharString index="2">
        795 -27 callsubr
        -103 callgsubr
        161 -82 callsubr
        return
      </CharString>
      <CharString index="3">
        -70 callgsubr
        -13 -13 -13 -11 callsubr
        -42 -42 -45 -94 callsubr
        endchar
      </CharString>
      <CharString index="4">
        -16 -77 -55 -11 11 callsubr
        -120 -514 rlineto
        -35 -53 -96 -34 -63 hhcurveto
        -95 -84 38 108 20 3 20 -10 callgsubr
        88 378 rlineto
        26 hlineto
        28 51 56 10 32 hvcurveto
        -204 -35 callsubr
        82 hlineto
        -94 -406 rlineto
        -7 -31 -6 -33 -32 vvcurveto
        -112 70 -36 103 116 109 59 59 96 vhcurveto
        -11 -47 -20 -23 -32 -35 rrcurveto
        return
      </CharString>
      <CharString index="5">
        45 296 703 rmoveto
        -85 callsubr
        311 -93 callsubr
        return
      </CharString>
      <CharString index="6">
        -76 callgsubr
        -123 -77 -129 -65 callgsubr
        31 21 72 108 -82 callgsubr
        7 -80 2 -81 11 -79 return
      </CharString>
      <CharString index="7">
        -102 callsubr
        endchar
      </CharString>
      <CharString index="8">
        542 682 -24 rmoveto
        23 13 73 40 14 13 30 30 22 42 23 34 61 92 224 311 19 81 rrcurveto
        -28 callsubr
        8 vvcurveto
        33 -19 25 -35 -52 -36 -52 -21 -45 vhcurveto
        5 11 12 3 13 hhcurveto
        36 12 -30 -31 -100 -204 -275 -81 -104 hvcurveto
        -2 98 -21 442 -61 56 -35 -23 -26 -22 -37 -22 rrcurveto
        16 -19 5 -23 -24 vvcurveto
        -119 -173 -239 -68 -101 vhcurveto
        112 3 397 -72 73 vhcurveto
        13 -13 -9 5 -18 hhcurveto
        -49 -78 -53 -31 -36 hvcurveto
        9 17 20 7 19 hhcurveto
        123 -5 -421 -81 -52 -2 -51 1 -52 hvcurveto
        -10 vlineto
        22 13 64 40 14 13 rrcurveto
        -3 48 65 32 21 hvcurveto
        66 97 81 116 60 100 21 -151 0 -173 3 -152 rrcurveto
        return
      </CharString>
      <CharString index="9">
        49 90 -297 rmoveto
        225 164 247 197 46 hvcurveto
        67 289 rlineto
        1 4 1 4 4 vvcurveto
        19 -11 9 -19 -37 -64 -49 -22 -31 vhcurveto
        3 8 17 callsubr
        -12 -18 -10 -2 -12 -2 -10 hvcurveto
        -57 -244 rlineto
        -24 -22 -38 -22 -33 hhcurveto
        -57 -39 19 62 20 3 19 5 19 hvcurveto
        15 68 17 67 16 67 rrcurveto
        3 14 2 13 14 vvcurveto
        27 -13 12 46 callgsubr
        -30 -42 vhcurveto
        4 12 30 callsubr
        9 -22 -27 -25 -6 -24 -5 -24 hvcurveto
        -40 -173 rlineto
        -4 -14 -2 -15 -15 vvcurveto
        -55 31 -27 55 73 75 45 38 60 vhcurveto
        -104 -26 -46 -201 -137 hhcurveto
        -20 -62 9 28 10 7 callgsubr
        hvcurveto
        -26 -19 -101 -41 -32 vvcurveto
        -29 57 -8 21 vhcurveto
        return
      </CharString>
      <CharString index="10">
        -34 618 485 rmoveto
        -6 -14 -17 -4 -14 -47 -47 3 -48 hhcurveto
        -134 -201 -119 -149 -63 34 -50 67 15 15 3 4 13 hvcurveto
        -32 -21 -90 -45 -42 vvcurveto
        -24 26 -16 19 -9 vhcurveto
        -60 -35 -155 -53 -88 vvcurveto
        -55 120 -13 40 95 267 74 101 70 -144 45 -53 24 vhcurveto
        -20 8 -25 16 25 68 289 46 199 vvcurveto
        14 -1 13 -4 12 vhcurveto
        25 6 73 35 8 26 rrcurveto
        -211 -168 rmoveto
        -55 -30 -99 -68 -67 -37 38 67 75 17 68 90 61 34 -33 -61 vhcurveto
        -45 -484 rmoveto
        -58 -80 -5 -40 -30 -152 32 33 52 84 37 38 15 vhcurveto
        40 -14 140 -39 -53 vvcurveto
        return
      </CharString>
      <CharString index="11">
        rmoveto
        -39 25 -29 38 -21 41 -7 14 -8 15 -4 14 rrcurveto
        2 -1 1 5 -3 hhcurveto
        -8 -98 -59 -7 -4 hvcurveto
        23 -62 31 -55 56 -38 16 1 76 54 19 12 rrcurveto
        endchar
      </CharString>
      <CharString index="12">
        rmoveto
        -24 callsubr
        rrcurveto
        -79 callsubr
        -37 21 -7 33 52 47 41 28 42 vhcurveto
        -64 callsubr
        return
      </CharString>
      <CharString index="13">
        100 442 304 rmoveto
        68 68 227 205 91 vvcurveto
        32 -24 15 -29 -61 -34 -59 -11 -40 vhcurveto
        2 9 9 -29 callgsubr
        -52 -51 hvcurveto
        -5 94 -46 162 -52 79 rrcurveto
        24 -16 -20 13 -29 hhcurveto
        -57 -73 -46 -39 -7 callsubr
        81 59 -203 -62 13 hvcurveto
        8 -35 7 -37 -36 vvcurveto
        -9 -1 -10 -2 -10 vhcurveto
        -28 -124 -14 -55 -22 -33 -42 -37 31 callsubr
        64 61 5 21 32 callgsubr
        26 27 24 43 9 37 10 43 10 44 10 44 rrcurveto
        return
      </CharString>
      <CharString index="14">
        -89 184 -95 callsubr
        return
      </CharString>
      <CharString index="15">
        rmoveto
        -1 19 -22 50 0 vvcurveto
        -89 -53 -62 callsubr
        3 -8 -7 -34 -36 -40 -25 -19 hvcurveto
        13 10 17 4 13 11 rrcurveto
        35 28 32 45 47 vvcurveto
        endchar
      </CharString>
      <CharString index="16">
        491 -95 callgsubr
        return
      </CharString>
      <CharString index="17">
        282 892 673 rmoveto
        8 -5 2 -5 4 vhcurveto
        29 -50 -95 15 -58 hhcurveto
        -266 -303 -230 -282 -157 106 -81 151 130 172 84 90 92 hvcurveto
        39 169 20 15 28 23 23 9 rlinecurve
        -199 -28 callgsubr
        140 hlineto
        -50 -213 rlineto
        -32 -45 -93 -10 -55 hhcurveto
        -146 -92 93 145 204 125 174 218 40 177 -11 -41 -8 -17 -10 -6 -6 hvcurveto
        17 8 117 67 9 vvcurveto
        return
      </CharString>
      <CharString index="18">
        -225 307 -91 callgsubr
        return
      </CharString>
      <CharString index="19">
        rmoveto
        -16 -31 -45 -35 -35 -73 -8 61 -53 hhcurveto
        -84 -96 -68 -62 -54 hvcurveto
        16 24 74 47 27 66 -8 -60 71 hhcurveto
        82 85 64 53 58 hvcurveto
        endchar
      </CharString>
      <CharString index="20">
        rmoveto
        -2 -20 -21 0 -21 -32 -32 2 -32 hhcurveto
        -2 -3 -1 -1 -2 hvcurveto
        50 73 50 73 49 74 5 -73 5 -73 6 -72 rrcurveto
        return
      </CharString>
      <CharString index="21">
        rmoveto
        -84 callsubr
        return
      </CharString>
      <CharString index="22">
        484 rmoveto
        -1 -20 -19 -1 -19 -58 -57 5 -57 hhcurveto
        -22 -22 1 -4 -21 hvcurveto
        -20 -3 -82 -58 -36 -43 rrcurveto
        21 35 18 0 22 56 52 -5 56 16 16 1 16 hhcurveto
        -90 -74 -79 -102 -88 -103 -45 -54 -46 -43 -33 -21 rrcurveto
        81 81 -1 81 hhcurveto
        88 85 54 63 53 hvcurveto
        -28 -41 -33 -4 -29 -24 -15 2 -24 hhcurveto
        -162 hlineto
        46 33 16 23 37 42 49 58 47 60 51 58 40 46 72 61 28 17 rrcurveto
        return
      </CharString>
      <CharString index="23">
        372 825 rmoveto
        -33 -14 -32 -15 -32 -15 -11 callgsubr
        7 1 7 hhcurveto
        34 14 -19 -32 -15 -3 -15 -3 -15 hvcurveto
        -122 -522 rlineto
        -5 -21 -4 -22 -21 vvcurveto
        -30 10 -20 32 59 45 40 31 46 -40 callsubr
        return
      </CharString>
      <CharString index="24">
        574 93 rmoveto
        -18 -25 -41 -9 -30 hhcurveto
        -248 -30 0 0 0 47 29 14 55 hvcurveto
        40 161 35 165 38 160 rrcurveto
        -13 callgsubr
        -223 hlineto
        -13 callsubr
        -121 -519 -13 -55 -19 -28 -44 -34 rlinecurve
        316 hlineto
        60 75 51 42 41 hvcurveto
        return
      </CharString>
      <CharString index="25">
        hvcurveto
        -20 -35 -62 -7 -39 hhcurveto
        -14 -14 1 -1 -14 hvcurveto
        71 63 48 54 55 76 57 -1 110 -1 48 29 return
      </CharString>
      <CharString index="26">
        hlineto
        24 -41 callsubr
        31 26 23 60 9 37 -32 callgsubr
        37 -52 callsubr
        return
      </CharString>
      <CharString index="27">
        379 rmoveto
        26 19 27 15 28 14 -62 callgsubr
        10 7 9 7 7 vhcurveto
        -28 -25 -95 -26 -41 21 callgsubr
        98 199 95 114 vhcurveto
        -26 callgsubr
        -7 -7 -7 -6 -3 vhcurveto
        return
      </CharString>
      <CharString index="28">
        10 callsubr
        -14 -13 -12 -14 -14 -13 -42 -42 -44 -94 callsubr
        -132 hmoveto
        -104 callgsubr
      </CharString>
      <CharString index="29">
        -86 callgsubr
        endchar
      </CharString>
      <CharString index="30">
        -25 -63 -99 -31 -66 hhcurveto
        -144 -77 101 139 212 136 156 222 44 42 -5 -16 41 hvcurveto
        4 -2 9 -2 -6 vvcurveto
        -4 -20 -14 -4 -3 vhcurveto
        18 7 118 70 9 vvcurveto
        return
      </CharString>
      <CharString index="31">
        18 49 46 2 51 hhcurveto
        37 hlineto
        -6 -7 -4 -8 -5 -9 -40 -66 -46 -64 -43 -64 -83 return
      </CharString>
      <CharString index="32">
        -69 534 -85 callgsubr
        return
      </CharString>
      <CharString index="33">
        rmoveto
        19 -23 49 0 vhcurveto
        -88 -52 -62 callsubr
        2 -8 -8 -33 -35 -40 -25 -20 hvcurveto
        13 11 17 4 13 10 35 29 32 45 -1 47 rrcurveto
        return
      </CharString>
      <CharString index="34">
        -34 callgsubr
        -77 -38 37 76 88 49 162 105 53 31 -23 -48 18 hvcurveto
        return
      </CharString>
      <CharString index="35">
        54 664 -81 callsubr
        return
      </CharString>
      <CharString index="36">
        -53 callsubr
        -121 -519 -12 -55 -14 -26 -45 -36 rlinecurve
        return
      </CharString>
      <CharString index="37">
        -23 -12 -68 -37 -16 -14 return
      </CharString>
      <CharString index="38">
        -4 -14 -15 -3 -14 hhcurveto
        -26 -21 7 30 7 -28 callsubr
        hvcurveto
        return
      </CharString>
      <CharString index="39">
        152 425 35 callsubr
        78 39 200 103 100 vvcurveto
        32 -20 23 -33 -66 -76 -51 -41 -49 vhcurveto
        62 6 -22 40 -67 hhcurveto
        -74 -67 -46 -42 -59 hvcurveto
        13 27 30 7 30 hhcurveto
        54 33 -20 -57 -34 -9 -35 -8 -33 hvcurveto
        -40 -1 -36 -6 -37 -14 rrcurveto
        -65 -24 -122 -71 -79 vvcurveto
        -42 46 -12 34 76 69 45 35 65 vhcurveto
        -52 15 40 -28 55 hhcurveto
        81 96 42 55 59 hvcurveto
        -17 -33 -45 -14 -38 hhcurveto
        -80 -46 43 80 -2 hvcurveto
        168 34 callgsubr
        -46 -102 -85 -66 -17 vhcurveto
        61 4 36 143 78 hhcurveto
        33 17 -25 -31 hvcurveto
        -290 -241 rmoveto
        -33 -8 -47 -22 -32 hhcurveto
        -34 -37 10 42 20 8 22 10 17 hvcurveto
        5 24 24 1 25 30 -16 0 67 hhcurveto
        return
      </CharString>
      <CharString index="40">
        rmoveto
        -24 -68 -63 -4 -18 hvcurveto
        353 -35 callgsubr
      </CharString>
      <CharString index="41">
        -53 callsubr
        -138 -594 rlineto
        -87 -20 -44 -154 -112 hhcurveto
        -43 -45 24 29 -31 hvcurveto
        -1 -1 1 2 10 24 16 9 5 hvcurveto
        -23 -10 -118 -66 -20 vvcurveto
        -30 91 -27 24 182 179 207 167 40 vhcurveto
        41 176 40 175 41 176 rrcurveto
        37 hlineto
        27 53 58 9 30 hvcurveto
        return
      </CharString>
      <CharString index="42">
        -105 -106 -20 -21 -22 -18 -21 -19 -2 -2 rcurveline
        19 hlineto
        131 return
      </CharString>
      <CharString index="43">
        rlineto
        -4 -16 -3 -17 -17 vvcurveto
        -28 7 -21 31 46 46 36 38 24 vhcurveto
        -4 -9 -15 -4 -8 hhcurveto
        -15 -6 9 14 8 2 9 2 8 hvcurveto
        34 148 rlineto
        63 15 27 89 80 hhcurveto
        46 35 -7 -54 -22 -4 -21 -5 -21 hvcurveto
        -43 18 callgsubr
        -22 -7 -22 -22 vvcurveto
        -29 15 -12 28 56 54 36 38 39 vhcurveto
        return
      </CharString>
      <CharString index="44">
        -37 callgsubr
        105 448 -74 -33 -68 -46 -67 -43 rlinecurve
        3 14 15 50 callsubr
        -3 -12 -3 -12 hvcurveto
        -137 -593 -66 callsubr
        return
      </CharString>
      <CharString index="45">
        14 8 22 8 6 17 rrcurveto
        0 0 1 1 vvcurveto
        17 -55 4 -13 -78 -200 -103 -89 vhcurveto
        -93 195 24 -97 vvcurveto
        -43 -23 -26 -44 -23 -79 5 33 return
      </CharString>
      <CharString index="46">
        hlineto
        29 124 70 22 23 hvcurveto
        -9 -24 -46 -17 -24 hhcurveto
        return
      </CharString>
      <CharString index="47">
        22 584 550 rmoveto
        -29 -21 -74 -18 -14 -31 rrcurveto
        3 -12 -12 1 -12 47 callgsubr
        -44 15 -44 33 -31 hvcurveto
        -20 -24 -21 -23 -21 -23 29 21 36 8 30 19 rrcurveto
        -10 21 23 -4 23 hhcurveto
        152 199 182 156 46 -17 47 -37 30 hvcurveto
        21 32 20 32 20 33 rrcurveto
        -176 -160 rmoveto
        -62 -90 -66 -87 -69 -84 rrcurveto
        -14 28 -6 31 32 vvcurveto
        72 39 126 89 32 32 -8 -20 25 vhcurveto
        55 -133 rmoveto
        -72 -39 -128 -89 -35 -34 10 24 -26 vhcurveto
        71 81 70 83 64 87 rrcurveto
        13 -27 5 -29 -29 vvcurveto
        return
      </CharString>
      <CharString index="48">
        -18 -37 -40 -11 -41 hhcurveto
        -93 -62 45 97 99 53 127 115 17 81 -14 -20 -3 -11 -10 -2 -2 hvcurveto
        return
      </CharString>
      <CharString index="49">
        342 373 -40 rmoveto
        239 314 277 245 return
      </CharString>
      <CharString index="50">
        -37 callsubr
        -164 116 -73 153 return
      </CharString>
      <CharString index="51">
        -17 callsubr
        -121 -519 -13 -57 -16 -25 -47 -35 rlinecurve
        170 -18 callsubr
        22 callgsubr
        35 21 24 66 9 36 -32 callgsubr
        200 hlineto
        25 -44 callgsubr
        return
      </CharString>
      <CharString index="52">
        12 callgsubr
        -28 5 32 18 6 18 4 16 hvcurveto
        return
      </CharString>
      <CharString index="53">
        -13 hvcurveto
        -54 -232 rlineto
        -2 -10 -2 -12 -11 vvcurveto
        return
      </CharString>
      <CharString index="54">
        160 -310 -62 158 vvcurveto
        94 75 28 81 20 87 -5 -27 -10 -15 -12 -8 -6 vhcurveto
        23 9 113 65 21 vvcurveto
        return
      </CharString>
      <CharString index="55">
        250 252 hmoveto
        258 312 180 287 180 -170 13 callgsubr
        -56 -57 -10 -29 hvcurveto
        107 hlineto
        -62 -267 rlineto
        -12 hlineto
        -27 -55 -58 -9 -29 hvcurveto
        107 hlineto
        -38 -163 -12 -52 -14 -3 callsubr
        -118 -138 -223 vhcurveto
        -162 hlineto
        35 38 7 12 12 51 32 136 rcurveline
        53 hlineto
        27 54 58 9 29 hvcurveto
        -148 hlineto
        63 267 rlineto
        156 183 -26 -195 hvcurveto
        endchar
      </CharString>
      <CharString index="56">
        -15 -44 callsubr
        return
      </CharString>
      <CharString index="57">
        -57 -44 -31 -41 vhcurveto
        5 11 -8 callgsubr
        return
      </CharString>
      <CharString index="58">
        vvcurveto
        -38 26 -31 38 -40 callgsubr
        return
      </CharString>
      <CharString index="59">
        rlineto
        -4 -17 -3 -18 -17 vvcurveto
        -46 19 -30 49 61 68 34 47 39 vhcurveto
        -8 -18 -28 -10 -19 hhcurveto
        -42 -24 15 45 16 3 16 4 16 hvcurveto
        return
      </CharString>
      <CharString index="60">
        -36 callgsubr
        -87 58 -68 90 return
      </CharString>
      <CharString index="61">
        -168 -97 -17 -44 -42 -182 -24 -16 -25 -16 -24 -17 rrcurveto
        61 hlineto
        -94 -407 -20 -86 -25 -84 -57 -69 rlinecurve
        -1 hlineto
        -11 -1 -14 5 14 vvcurveto
        11 9 10 8 6 vhcurveto
        -27 -20 -99 -38 -46 callsubr
        return
      </CharString>
      <CharString index="62">
        271 762 -15 callsubr
        -74 -338 -95 callgsubr
        return
      </CharString>
      <CharString index="63">
        67 64 3 19 hvcurveto
        return
      </CharString>
      <CharString index="64">
        -167 295 703 rmoveto
        -66 callgsubr
        return
      </CharString>
      <CharString index="65">
        250 251 hmoveto
        259 311 180 287 180 -169 13 callgsubr
        -57 -56 -11 -29 hvcurveto
        108 hlineto
        -116 -497 -12 -52 -15 -3 callsubr
        -117 -138 -223 vhcurveto
        -163 hlineto
        35 37 8 14 12 50 110 470 rcurveline
        155 1 183 -27 -195 vvcurveto
        return
      </CharString>
      <CharString index="66">
        28 119 54 callsubr
        -13 -8 rlinecurve
        -17 -12 -18 -12 -19 -12 -15 -69 rcurveline
        -26 -16 -25 -17 -25 -17 rrcurveto
        64 hlineto
        return
      </CharString>
      <CharString index="67">
        30 29 14 13 26 vhcurveto
        18 10 102 58 6 11 rrcurveto
        return
      </CharString>
      <CharString index="68">
        -33 callsubr
        37 65 49 22 return
      </CharString>
      <CharString index="69">
        32 callsubr
        -28 -19 8 30 13 return
      </CharString>
      <CharString index="70">
        8 561 81 rmoveto
        -10 -20 -29 -9 -23 hhcurveto
        -31 -98 154 31 -21 hvcurveto
        57 31 111 65 74 vvcurveto
        34 -24 22 -34 -52 -88 -49 -31 -41 vhcurveto
        return
      </CharString>
      <CharString index="71">
        -153 -200 -181 -156 return
      </CharString>
      <CharString index="72">
        -52 callsubr
        endchar
      </CharString>
      <CharString index="73">
        rmoveto
        -25 -6 -55 -25 -24 hhcurveto
        return
      </CharString>
      <CharString index="74">
        -49 callgsubr
        0 vlineto
        endchar
      </CharString>
      <CharString index="75">
        104 447 rcurveline
        return
      </CharString>
      <CharString index="76">
        vhcurveto
        -3 -8 -8 -2 -7 hhcurveto
        -19 return
      </CharString>
      <CharString index="77">
        15 10 9 hhcurveto
        11 29 callsubr
        -30 -25 hvcurveto
        16 13 21 5 16 return
      </CharString>
      <CharString index="78">
        1 9 hhcurveto
        31 19 -18 -31 -73 -130 -135 return
      </CharString>
      <CharString index="79">
        hlineto
        -49 callsubr
        return
      </CharString>
      <CharString index="80">
        10 -26 -17 -18 -4 -6 -16 vhcurveto
        -40 return
      </CharString>
      <CharString index="81">
        106 -196 -37 92 vvcurveto
        41 21 18 40 12 54 -3 -18 return
      </CharString>
      <CharString index="82">
        12 callsubr
        -78 -55 return
      </CharString>
      <CharString index="83">
        -55 1 callsubr
        return
      </CharString>
      <CharString index="84">
        9 callsubr
        -35 -20 -33 24 callsubr
        20 13 73 -4 callgsubr
        endchar
      </CharString>
      <CharString index="85">
        rmoveto
        -4 -8 -15 -10 -8 hhcurveto
        -11 -4 -21 callsubr
        1 -23 28 -62 0 vvcurveto
        38 callgsubr
      </CharString>
      <CharString index="86">
        -34 callgsubr
        -89 -46 49 88 97 43 129 116 51 47 -22 -49 19 hvcurveto
        return
      </CharString>
      <CharString index="87">
        -32 callsubr
        -17 hvcurveto
        return
      </CharString>
      <CharString index="88">
        rmoveto
        -3 -6 -12 -8 -7 hhcurveto
        -8 -3 9 7 33 36 40 24 20 hvcurveto
        -12 -10 -18 -5 -13 -10 -35 -28 -32 -46 1 -46 rrcurveto
        -3 vlineto
        -19 23 -49 0 vhcurveto
        88 53 rlineto
        endchar
      </CharString>
      <CharString index="89">
        hlineto
        24 -6 callsubr
        return
      </CharString>
      <CharString index="90">
        -110 -66 return
      </CharString>
      <CharString index="91">
        -110 26 callgsubr
        return
      </CharString>
      <CharString index="92">
        -11 vhcurveto
        -23 -14 -23 -12 -21 -14 callsubr
        return
      </CharString>
      <CharString index="93">
        rlineto
        26 hlineto
        25 -44 callgsubr
        -213 25 callgsubr
        return
      </CharString>
      <CharString index="94">
        36 hlineto
        25 66 45 callsubr
        return
      </CharString>
      <CharString index="95">
        hhcurveto
        -27 -29 4 33 18 6 20 return
      </CharString>
      <CharString index="96">
        -37 -18 -35 -22 -35 -21 rrcurveto
        1 7 return
      </CharString>
      <CharString index="97">
        4 19 hvcurveto
        return
      </CharString>
      <CharString index="98">
        -136 -98 -128 -109 -2 callsubr
        return
      </CharString>
      <CharString index="99">
        13 3 12 hhcurveto
        return
      </CharString>
      <CharString index="100">
        -15 -78 -55 return
      </CharString>
      <CharString index="101">
        rrcurveto
        108 138 102 146 return
      </CharString>
      <CharString index="102">
        -52 43 -48 50 -47 49 -21 -14 -73 -19 callsubr
        return
      </CharString>
      <CharString index="103">
        48 17 5 -41 51 -50 44 -50 42 73 43 71 49 63 58 rrcurveto
        return
      </CharString>
      <CharString index="104">
        237 300 21 callsubr
        -19 hvcurveto
        return
      </CharString>
      <CharString index="105">
        703 rmoveto
        -53 callsubr
        return
      </CharString>
      <CharString index="106">
        20 3 callgsubr
        return
      </CharString>
      <CharString index="107">
        -55 -11 -18 hvcurveto
        return
      </CharString>
      <CharString index="108">
        -124 rmoveto
        -12 -29 -38 -27 return
      </CharString>
      <CharString index="109">
        103 93 113 91 116 -6 callgsubr
        69 161 rrcurveto
        -615 -528 rmoveto
        132 return
      </CharString>
      <CharString index="110">
        32 callgsubr
        42 46 7 17 14 60 return
      </CharString>
      <CharString index="111">
        63 14 callgsubr
        return
      </CharString>
      <CharString index="112">
        -5 -65 -149 -97 -9 callgsubr
        26 return
      </CharString>
      <CharString index="113">
        13 callsubr
        -31 -25 hvcurveto
        16 13 22 5 16 return
      </CharString>
      <CharString index="114">
        9 10 8 6 return
      </CharString>
      <CharString index="115">
        rlineto
        61 hlineto
        25 68 65 2 17 hvcurveto
        return
      </CharString>
      <CharString index="116">
        -7 -37 -16 -12 -8 rlinecurve
        -18 -10 -18 -13 -18 -12 -47 -204 rcurveline
        -69 hlineto
        -7 callgsubr
        -11 return
      </CharString>
      <CharString index="117">
        39 callgsubr
        45 callsubr
        return
      </CharString>
      <CharString index="118">
        vhcurveto
        -16 callgsubr
        rlineto
        return
      </CharString>
      <CharString index="119">
        -1 -11 hhcurveto
        -27 return
      </CharString>
      <CharString index="120">
        56 -152 hvcurveto
        -217 hlineto
        -25 return
      </CharString>
      <CharString index="121">
        3 18 hvcurveto
        return
      </CharString>
      <CharString index="122">
        46 75 81 69 85 68 6 callsubr
        return
      </CharString>
      <CharString index="123">
        64 70 62 30 69 42 46 hvcurveto
        5 4 1 4 hhcurveto
        77 48 -54 -75 hvcurveto
        return
      </CharString>
      <CharString index="124">
        -34 callsubr
        -30 21 -6 return
      </CharString>
      <CharString index="125">
        -182 rlineto
        -5 return
      </CharString>
      <CharString index="126">
        -136 -99 -128 -109 -141 -118 -133 -130 -122 return
      </CharString>
      <CharString index="127">
        hlineto
        -24 -68 -63 -3 -18 hvcurveto
        return
      </CharString>
      <CharString index="128">
        vvcurveto
        -30 68 -10 23 return
      </CharString>
      <CharString index="129">
        -161 hlineto
        return
      </CharString>
      <CharString index="130">
        -8 -71 -51 -6 -1 258 -1 rcurveline
        -9 -40 -8 -38 -41 -20 rrcurveto
        return
      </CharString>
      <CharString index="131">
        86 -6 callgsubr
        return
      </CharString>
      <CharString index="132">
        hlineto
        -39 callsubr
        return
      </CharString>
      <CharString index="133">
        -66 32 -82 return
      </CharString>
      <CharString index="134">
        169 133 43 callgsubr
        return
      </CharString>
      <CharString index="135">
        285 359 21 rmoveto
        204 296 225 216 return
      </CharString>
      <CharString index="136">
        -111 -66 33 -82 rlineto
        4 7 return
      </CharString>
      <CharString index="137">
        vvcurveto
        -74 39 -54 78 vhcurveto
        return
      </CharString>
      <CharString index="138">
        40 57 -1 58 rrcurveto
        return
      </CharString>
      <CharString index="139">
        39 callsubr
        hlineto
        return
      </CharString>
      <CharString index="140">
        -124 rmoveto
        -12 -29 -38 37 callsubr
        return
      </CharString>
      <CharString index="141">
        172 rmoveto
        return
      </CharString>
      <CharString index="142">
        237 rlineto
        return
      </CharString>
      <CharString index="143">
        166 hlineto
        return
      </CharString>
      <CharString index="144">
        hlineto
        25 67 4 callgsubr
        return
      </CharString>
      <CharString index="145">
        -51 callsubr
        endchar
      </CharString>
      <CharString index="146">
        hlineto
        25 65 return
      </CharString>
      <CharString index="147">
        -8 hvcurveto
        -60 return
      </CharString>
      <CharString index="148">
        hlineto
        -121 -519 return
      </CharString>
      <CharString index="149">
        hvcurveto
        -48 -31 -39 -37 -29 -49 -2 -3 -1 return
      </CharString>
      <CharString index="150">
        rmoveto
        -16 callgsubr
        111 67 rlineto
        return
      </CharString>
      <CharString index="151">
        5 1 5 1 4 hvcurveto
        return
      </CharString>
      <CharString index="152">
        49 42 28 40 vhcurveto
        -2 return
      </CharString>
      <CharString index="153">
        -27 -53 -57 -44 return
      </CharString>
      <CharString index="154">
        hhcurveto
        -36 callgsubr
        return
      </CharString>
      <CharString index="155">
        -22 -54 -17 -24 -27 -4 -4 -2 -10 return
      </CharString>
      <CharString index="156">
        -1 -5 -1 return
      </CharString>
      <CharString index="157">
        -21 -22 vvcurveto
        return
      </CharString>
      <CharString index="158">
        90 47 4 10 rrcurveto
        -1 9 -1 return
      </CharString>
      <CharString index="159">
        14 16 -5 callsubr
        return
      </CharString>
      <CharString index="160">
        28 54 59 7 28 return
      </CharString>
      <CharString index="161">
        -5 callsubr
        23 return
      </CharString>
      <CharString index="162">
        vhcurveto
        -2 -10 return
      </CharString>
</ttFont>
